<?xml version="1.0" standalone="no"?>
<!DOCTYPE svg PUBLIC "-//W3C//DTD SVG 20010904//EN"
 "http://www.w3.org/TR/2001/REC-SVG-20010904/DTD/svg10.dtd">
<svg version="1.0" xmlns="http://www.w3.org/2000/svg"
 width="678.000000pt" height="678.000000pt" viewBox="0 0 678.000000 678.000000"
 preserveAspectRatio="xMidYMid meet">
<metadata>
Created by potrace 1.11, written by Peter Selinger 2001-2013
</metadata>
<g transform="translate(0.000000,678.000000) scale(0.100000,-0.100000)"
fill="#000000" stroke="none">
<path d="M3314 6709 c-8 -14 10 -32 38 -36 12 -2 19 -1 16 3 -3 3 -14 7 -25 8
-10 2 -17 11 -17 20 2 19 -2 20 -12 5z"/>
<path d="M3154 6698 c-4 -7 -4 -10 1 -6 4 4 15 2 24 -5 14 -11 14 -10 2 6 -16
20 -18 21 -27 5z"/>
<path d="M3372 6701 c-11 -7 -10 -9 3 -15 9 -3 14 -10 11 -15 -7 -11 -116 -8
-135 4 -10 5 -12 4 -7 -4 5 -8 0 -10 -20 -7 -15 3 -35 0 -43 -7 -8 -7 -12 -7
-9 -2 4 6 -5 16 -20 23 -19 9 -23 9 -14 0 20 -20 14 -25 -30 -23 -24 1 -43 3
-43 4 0 2 -8 4 -18 6 -9 2 -15 -1 -11 -6 3 -5 10 -6 16 -3 7 4 8 2 4 -5 -4 -6
-18 -9 -31 -7 -14 3 -28 0 -31 -6 -4 -7 -14 -1 -25 13 l-18 24 4 -23 c4 -21 2
-22 -12 -10 -12 9 -15 9 -9 1 7 -13 4 -14 -59 -17 -16 0 -32 -4 -35 -7 -3 -4
-23 -10 -45 -13 -54 -9 -67 -12 -85 -19 -40 -14 -49 -15 -54 -4 -2 7 -5 4 -5
-5 -1 -10 -4 -18 -7 -18 -4 0 -13 8 -20 18 -12 16 -12 16 -11 -3 2 -15 -4 -20
-20 -19 -12 0 -20 -3 -18 -7 3 -4 -5 -9 -17 -12 -13 -4 -26 -1 -30 6 -5 8 -8
6 -8 -7 0 -11 -3 -17 -6 -14 -3 4 -17 0 -31 -7 -15 -8 -30 -12 -35 -9 -4 3 -8
0 -8 -6 0 -6 -4 -8 -10 -5 -5 3 -10 1 -10 -4 0 -6 -5 -11 -11 -11 -5 0 -7 6
-4 13 4 6 0 4 -8 -5 -8 -10 -22 -18 -31 -18 -9 0 -16 -4 -16 -10 0 -5 -3 -9
-7 -8 -15 4 -53 -13 -53 -24 0 -6 -7 -5 -17 3 -14 12 -16 12 -8 0 6 -11 4 -13
-8 -8 -9 3 -16 3 -14 -1 1 -4 -2 -7 -8 -7 -5 0 -9 4 -7 8 1 5 -2 6 -7 2 -6 -3
-8 -12 -5 -20 4 -10 -1 -12 -18 -9 -13 2 -17 1 -10 -2 9 -4 0 -14 -28 -30 -24
-14 -45 -22 -48 -19 -3 2 -11 -3 -19 -13 -12 -16 -14 -16 -28 2 -8 11 -15 15
-15 9 0 -7 5 -15 10 -18 16 -10 0 -27 -18 -20 -9 3 -13 3 -9 -1 9 -9 -73 -65
-85 -58 -5 3 -8 2 -7 -3 4 -22 -2 -25 -16 -7 -12 15 -14 16 -9 2 7 -20 -15
-47 -34 -40 -7 2 -11 -2 -10 -10 2 -8 -5 -12 -22 -10 -16 1 -20 -1 -12 -6 9
-6 6 -14 -13 -30 -14 -12 -25 -20 -25 -18 0 2 -16 -11 -35 -30 -20 -19 -40
-34 -46 -34 -5 0 -8 -4 -5 -9 7 -11 -22 -23 -35 -16 -5 4 -6 -1 -3 -9 4 -11 0
-16 -11 -16 -9 0 -14 -4 -11 -8 3 -5 -24 -36 -59 -70 -36 -34 -61 -62 -57 -62
4 0 -4 -11 -18 -24 -14 -12 -38 -40 -54 -60 -24 -31 -31 -35 -45 -24 -14 12
-14 11 -2 -4 11 -15 9 -23 -18 -60 -17 -23 -31 -38 -31 -33 0 5 -12 -14 -26
-43 -14 -29 -32 -52 -40 -52 -7 0 -11 -6 -8 -14 3 -7 -2 -20 -10 -29 -8 -8
-12 -18 -8 -22 4 -5 -1 -5 -11 -2 -11 4 -16 3 -12 -3 8 -13 -25 -81 -35 -75
-5 3 -6 -3 -3 -14 3 -10 -1 -22 -8 -26 -8 -5 -10 -4 -5 3 11 18 0 14 -15 -5
-10 -11 -10 -14 -1 -9 6 4 12 5 12 3 0 -13 -31 -77 -38 -77 -4 0 -8 -12 -9
-26 0 -15 -6 -30 -13 -34 -6 -4 -11 -10 -11 -14 3 -18 0 -27 -7 -23 -4 3 -8
-8 -8 -25 -1 -17 -5 -33 -10 -37 -9 -6 -11 -12 -17 -49 -2 -9 -11 -43 -22 -75
-15 -48 -22 -58 -37 -54 -10 3 -16 1 -12 -4 3 -5 12 -9 19 -9 9 0 12 -6 9 -15
-4 -8 -11 -12 -16 -9 -6 4 -5 -4 2 -16 10 -19 10 -22 -2 -17 -8 3 -15 -1 -15
-9 0 -7 3 -11 7 -9 4 2 7 -3 7 -11 0 -9 -6 -13 -15 -9 -11 4 -12 2 -5 -7 13
-18 10 -44 -5 -40 -9 1 -9 -3 0 -19 10 -17 10 -23 1 -26 -7 -2 -9 -11 -6 -20
5 -12 3 -14 -8 -8 -11 7 -12 6 -2 -6 10 -12 11 -35 4 -79 -1 -3 -6 2 -11 10
-6 9 -10 10 -10 3 0 -6 4 -14 9 -17 4 -3 6 -22 4 -43 -2 -21 -4 -68 -5 -105
-1 -40 -6 -64 -11 -61 -6 4 -7 1 -2 -7 12 -20 14 -121 3 -114 -6 4 -5 -3 1
-14 16 -30 14 -42 -6 -36 -17 5 -17 5 0 -6 19 -12 24 -35 5 -24 -8 5 -7 0 2
-11 19 -23 22 -69 4 -54 -8 7 -15 6 -20 -2 -4 -7 -3 -10 2 -7 5 3 14 1 19 -6
10 -11 13 -26 17 -108 2 -27 8 -48 13 -48 6 0 4 -4 -4 -9 -9 -6 -10 -11 -2
-15 8 -5 8 -13 1 -27 -7 -11 -7 -19 -1 -19 5 0 11 6 14 13 2 6 3 -9 2 -36 -1
-26 2 -50 6 -53 16 -10 9 -31 -13 -42 l-23 -11 25 2 c18 1 24 -2 22 -15 -1 -9
2 -19 8 -23 6 -4 5 -14 -5 -28 -10 -16 -11 -26 -4 -37 9 -13 10 -12 5 2 -3 10
0 20 6 24 7 4 8 3 4 -4 -4 -7 -3 -12 2 -12 6 0 8 -9 5 -20 -3 -12 0 -20 6 -20
7 0 10 -4 7 -9 -4 -5 0 -12 6 -14 10 -4 10 -6 0 -6 -7 -1 -15 6 -18 14 -6 16
-24 11 -24 -6 0 -6 5 -7 12 -3 7 5 9 2 5 -8 -3 -9 0 -15 6 -14 7 0 13 -3 14
-8 1 -5 7 -13 15 -17 10 -7 10 -9 1 -9 -7 0 -13 -5 -13 -11 0 -5 5 -7 12 -3 6
4 8 3 4 -4 -3 -6 -2 -13 4 -17 6 -4 8 -11 5 -16 -4 -5 -2 -9 4 -9 10 0 9 -25
-2 -36 -14 -14 -7 -26 8 -14 13 11 14 10 9 -5 -5 -11 -4 -16 3 -12 5 3 10 0
10 -8 0 -8 -5 -11 -11 -7 -18 11 -36 11 -29 -1 4 -7 0 -8 -13 -3 -15 6 -16 5
-7 -5 10 -10 15 -9 28 1 18 15 19 7 4 -23 -10 -21 -9 -21 5 -3 13 16 18 17 31
6 13 -11 12 -16 -6 -41 -11 -16 -17 -29 -12 -28 21 4 44 -2 39 -10 -3 -4 -18
-7 -33 -5 -26 3 -26 3 -4 -4 13 -4 25 -16 27 -26 1 -11 10 -25 18 -33 9 -7 12
-8 7 -2 -5 6 -7 18 -4 27 4 9 2 13 -4 9 -5 -3 -10 0 -10 8 0 33 29 -1 32 -37
0 -3 3 -9 7 -13 4 -4 4 -14 1 -23 -4 -10 -2 -13 5 -8 7 4 12 2 12 -4 0 -7 -6
-10 -12 -7 -7 2 -12 11 -12 19 1 10 -5 14 -18 10 -18 -4 -18 -5 2 -19 16 -12
18 -18 10 -29 -7 -7 -10 -19 -7 -26 4 -9 6 -7 6 4 1 20 41 13 41 -8 0 -8 3
-13 8 -13 19 3 23 -2 12 -16 -10 -12 -10 -15 3 -15 23 0 27 -22 8 -44 -15 -18
-15 -18 6 -7 16 8 24 8 29 -1 4 -7 3 -8 -5 -4 -6 4 -14 0 -17 -8 -3 -9 -10
-14 -14 -11 -4 3 -14 -3 -21 -13 -13 -15 -12 -16 3 -4 14 11 19 10 32 -9 15
-22 15 -22 13 -1 0 11 -6 18 -12 15 -5 -4 -6 -2 -2 2 12 14 39 15 30 2 -5 -7
-8 -26 -7 -44 2 -26 -1 -31 -14 -26 -10 4 -14 3 -10 -1 3 -4 12 -8 20 -10 20
-3 38 -16 38 -28 0 -6 -6 -6 -15 2 -13 10 -18 11 -28 1 -9 -10 -8 -11 7 -5 13
5 17 4 12 -4 -4 -7 1 -10 14 -7 11 2 20 0 20 -6 0 -5 -7 -9 -15 -9 -8 0 -15
-4 -15 -9 0 -5 8 -8 18 -7 9 0 16 -5 14 -12 -1 -8 2 -11 9 -6 9 5 10 2 6 -9
-4 -10 -2 -16 5 -14 6 1 13 -4 15 -11 3 -8 -2 -10 -14 -6 -14 5 -15 4 -3 -4 8
-6 18 -8 24 -5 5 4 7 -1 3 -11 -5 -11 -3 -15 5 -10 8 5 9 2 5 -9 -3 -9 -2 -19
4 -22 5 -4 6 -11 3 -17 -4 -7 -2 -8 4 -4 15 9 16 -6 1 -21 -7 -7 -6 -12 5 -16
11 -4 13 -1 9 11 -6 15 -4 15 10 4 8 -8 14 -19 11 -25 -2 -7 5 -18 17 -25 17
-11 20 -11 13 0 -6 10 -5 11 8 1 8 -7 19 -9 23 -5 5 4 5 2 2 -4 -8 -14 16 -37
29 -26 4 4 2 -1 -5 -11 -8 -9 -11 -21 -7 -24 4 -4 11 -2 15 5 5 8 8 0 8 -20 0
-18 -2 -27 -5 -20 -2 6 -8 10 -13 6 -5 -3 -8 -2 -7 3 1 4 -3 18 -10 29 -6 12
-8 25 -4 29 4 5 1 5 -7 0 -10 -6 -12 -4 -6 5 6 9 4 11 -5 5 -8 -5 -11 -4 -7 1
3 5 -3 10 -14 10 -18 0 -18 -2 5 -19 15 -10 24 -22 21 -27 -3 -4 2 -11 11 -14
21 -8 8 -27 -14 -19 -9 3 -14 3 -10 -1 5 -7 27 -13 51 -15 5 -1 5 -6 1 -12 -4
-7 1 -7 16 1 12 6 24 9 28 6 3 -3 0 -6 -6 -6 -6 0 -16 -10 -23 -21 -9 -17 -8
-20 2 -14 9 6 11 3 6 -9 -4 -11 -3 -15 4 -11 5 4 26 -1 45 -10 27 -13 33 -20
24 -29 -10 -14 2 -32 25 -36 6 -1 12 -4 15 -7 3 -4 -1 -3 -7 1 -8 4 -13 2 -13
-6 0 -9 -3 -9 -10 2 -5 8 -10 11 -11 5 0 -5 -2 -18 -4 -28 -2 -11 -1 -16 2
-13 3 3 15 1 27 -5 19 -9 19 -9 -2 8 -21 18 -22 19 -3 19 11 0 18 -3 15 -7 -2
-4 1 -9 8 -11 8 -3 8 -9 1 -22 -7 -13 -13 -15 -17 -7 -9 14 -26 14 -26 0 0 -5
4 -8 9 -5 11 7 43 -28 34 -38 -4 -4 1 -4 11 0 12 5 14 9 6 14 -8 5 -7 9 5 13
9 4 14 3 11 -2 -7 -11 28 -43 37 -34 4 3 7 1 7 -5 0 -14 -16 -16 -25 -3 -6 10
-43 6 -54 -5 -3 -4 1 -5 11 -1 9 3 24 0 34 -8 10 -7 24 -11 31 -8 15 6 18 -13
3 -22 -5 -3 -10 -11 -10 -18 0 -8 3 -8 12 1 15 15 28 15 28 1 0 -5 -4 -7 -10
-4 -5 3 -10 0 -10 -8 0 -8 15 -22 33 -31 20 -10 25 -16 14 -16 -13 0 -16 -4
-9 -17 4 -10 7 -28 7 -40 -1 -12 1 -20 6 -18 4 3 10 1 14 -5 3 -5 10 -10 16
-10 5 0 0 9 -12 21 -14 14 -18 24 -11 31 16 16 36 -1 21 -18 -9 -11 -9 -14 0
-14 7 0 19 -7 28 -15 8 -8 18 -13 22 -11 4 3 8 -1 8 -9 0 -11 -5 -10 -24 2
-14 10 -23 11 -23 4 0 -6 5 -11 11 -11 6 0 9 -5 7 -12 -6 -16 29 -49 52 -51
10 -1 16 -5 13 -11 -4 -5 0 -7 9 -4 16 6 18 -17 4 -40 -4 -6 -4 -12 1 -13 4 0
-1 -4 -12 -9 -17 -7 -17 -9 -3 -9 10 -1 25 11 33 27 9 15 14 19 11 10 -3 -9 0
-18 6 -20 6 -2 12 -12 14 -21 1 -9 -1 -15 -6 -12 -11 7 -19 -30 -9 -46 6 -10
12 -9 30 6 l22 20 -18 -28 c-9 -15 -22 -27 -27 -27 -5 0 -6 -5 -3 -11 5 -6 13
-3 22 10 8 12 19 21 25 21 6 0 3 -10 -8 -22 l-19 -22 29 18 c16 10 26 13 22 8
-3 -6 -2 -13 4 -17 7 -4 7 -12 0 -26 -7 -13 -7 -19 0 -19 5 0 10 6 10 13 0 6
5 4 11 -6 6 -9 14 -15 20 -12 5 4 9 1 9 -4 0 -6 -7 -11 -15 -11 -8 0 -15 5
-15 11 0 8 -5 8 -15 -1 -19 -16 -9 -33 16 -25 22 7 26 -10 4 -19 -8 -3 -15
-11 -15 -18 0 -9 3 -9 10 2 5 8 12 11 16 7 4 -3 1 -14 -7 -24 -8 -9 -9 -14 -2
-10 13 8 76 -41 68 -53 -3 -5 -1 -11 4 -14 10 -7 9 13 -2 31 -4 6 -3 14 3 18
5 3 10 12 10 18 0 7 -7 3 -15 -7 -8 -11 -15 -15 -15 -9 0 7 -9 15 -21 18 -16
5 -18 10 -8 21 9 11 9 14 -1 14 -9 0 -8 5 3 18 10 10 14 23 10 28 -4 5 -1 3 7
-4 13 -11 13 -14 0 -22 -12 -7 -11 -12 4 -29 10 -11 22 -18 27 -16 14 9 21
-15 9 -30 -16 -19 21 -40 40 -22 10 10 11 9 4 -3 -14 -25 -15 -52 -2 -45 7 4
2 -3 -12 -14 -30 -25 -20 -27 18 -4 l27 17 -18 -21 c-17 -20 -17 -21 10 -54
15 -19 32 -37 36 -40 5 -3 8 -9 8 -13 -3 -20 0 -26 9 -21 14 9 12 -9 -2 -24
-11 -10 -9 -11 6 -5 15 6 17 4 11 -7 -7 -12 -6 -12 7 -1 10 8 19 9 22 3 3 -5
1 -12 -4 -14 -6 -3 -5 -4 2 -3 7 2 12 9 11 15 -4 16 6 14 25 -6 16 -16 16 -16
-1 -10 -9 3 -17 2 -17 -3 0 -17 18 -20 34 -5 13 14 15 13 13 -5 -1 -11 -7 -22
-15 -25 -7 -2 -10 0 -7 5 3 6 -1 7 -10 4 -26 -11 -12 -17 49 -23 4 -1 6 -8 2
-16 -3 -10 5 -20 24 -30 30 -16 32 -38 4 -49 -9 -3 -12 -11 -9 -17 4 -6 13 -8
20 -5 8 3 19 -3 27 -11 11 -14 11 -16 -4 -10 -12 4 -15 2 -11 -9 10 -26 27
-15 25 16 0 3 7 12 16 20 14 13 15 12 9 -3 -3 -9 -2 -19 4 -22 5 -4 7 -10 4
-15 -3 -5 4 -11 15 -15 21 -7 26 -20 12 -29 -4 -2 -14 -1 -22 5 -13 7 -13 9 0
9 12 1 11 3 -3 11 -9 6 -15 14 -12 20 4 5 1 9 -5 9 -7 0 -10 -7 -6 -15 3 -10
-1 -15 -12 -15 -10 0 -4 -7 15 -16 30 -15 35 -27 20 -51 -6 -9 -3 -11 8 -7 9
4 14 12 11 19 -3 8 2 16 10 19 9 4 12 2 8 -5 -4 -8 1 -9 16 -4 20 6 21 5 9 -8
-8 -8 -18 -12 -24 -9 -5 3 -4 -1 2 -9 10 -12 10 -18 1 -27 -9 -9 -9 -12 0 -12
7 0 12 5 12 10 0 6 7 10 17 10 14 0 15 -2 1 -17 -8 -10 -18 -25 -22 -33 -6
-12 -5 -12 6 1 16 20 39 13 31 -9 -3 -9 -3 -14 1 -11 4 4 8 16 11 27 3 16 0
19 -13 15 -14 -6 -15 -5 -2 9 13 14 16 14 26 0 6 -9 17 -12 25 -8 8 4 6 1 -3
-6 -9 -8 -18 -20 -20 -28 -2 -8 -12 -23 -23 -34 -13 -13 -14 -15 -3 -7 10 8
18 10 18 6 0 -5 6 -1 13 10 10 13 16 15 21 6 4 -6 12 -8 18 -5 6 4 8 2 5 -3
-4 -6 9 -23 28 -38 20 -15 32 -31 29 -37 -5 -7 -1 -9 9 -5 24 9 21 0 -4 -14
-17 -9 -20 -8 -14 2 5 7 4 10 -2 6 -6 -4 -10 3 -9 15 0 12 -5 23 -12 25 -8 3
-10 -1 -5 -13 5 -13 3 -15 -7 -9 -7 5 -5 -3 6 -18 13 -18 26 -25 41 -22 25 4
40 -10 22 -21 -7 -4 -9 -3 -6 3 3 5 0 10 -8 10 -21 0 -19 -10 6 -25 14 -9 19
-20 16 -33 -3 -10 -1 -17 3 -14 5 3 12 0 17 -7 4 -7 18 -21 30 -31 16 -14 23
-15 29 -6 5 8 3 10 -5 4 -10 -6 -11 -3 -1 14 9 18 30 21 30 5 0 -3 -5 -2 -11
2 -7 4 -10 1 -7 -7 7 -18 -10 -51 -22 -44 -5 3 -11 1 -14 -4 -7 -11 13 -9 33
3 11 7 13 5 8 -6 -4 -12 -1 -14 14 -11 12 3 19 0 19 -8 0 -11 2 -11 10 1 5 8
10 10 10 4 0 -18 -12 -24 -26 -13 -8 7 -14 7 -19 -1 -5 -8 -11 -8 -19 -1 -9 8
-13 7 -13 -2 0 -10 16 -13 54 -12 30 0 57 -3 60 -9 3 -5 1 -6 -5 -2 -7 4 -12
2 -12 -3 0 -6 5 -11 12 -11 6 0 8 -3 4 -7 -4 -5 -14 1 -22 11 -8 11 -14 15
-14 10 0 -6 6 -16 13 -23 10 -11 9 -13 -5 -8 -12 4 -15 2 -11 -9 3 -9 10 -11
17 -6 18 14 48 23 41 13 -3 -6 2 -14 10 -19 10 -5 13 -15 9 -25 -3 -9 -11 -14
-17 -10 -6 3 -7 1 -3 -6 4 -6 11 -9 16 -6 4 2 13 -8 19 -23 10 -24 18 -29 46
-29 20 0 32 4 28 10 -4 6 -1 7 7 2 11 -7 10 -10 -1 -19 -17 -13 -23 -56 -8
-56 5 0 8 -4 4 -9 -3 -5 0 -13 7 -17 7 -4 10 -4 6 1 -4 4 -2 15 5 23 10 13 9
14 -2 7 -10 -6 -12 -4 -6 5 6 9 4 11 -5 5 -8 -5 -11 -4 -6 3 10 16 31 5 46
-23 7 -13 17 -22 22 -19 5 4 4 -3 -3 -14 -7 -12 -16 -19 -19 -17 -10 6 -5 -33
5 -42 4 -5 5 -3 1 4 -8 14 32 14 51 1 6 -5 14 -5 17 0 3 6 -1 12 -9 16 -8 3
-15 11 -15 18 0 9 3 8 10 -2 5 -8 10 -10 10 -5 0 6 4 3 10 -5 6 -9 5 -20 -3
-29 -10 -12 -9 -14 8 -7 16 6 17 5 8 -5 -10 -10 -16 -9 -31 4 -18 17 -20 16
-33 0 -13 -16 -12 -17 4 -4 10 8 17 9 17 3 0 -6 10 -14 21 -17 17 -6 19 -9 8
-16 -9 -5 -3 -7 18 -5 18 3 36 7 41 10 5 3 9 -1 9 -8 0 -8 -7 -12 -16 -9 -9 3
-2 -8 14 -24 17 -16 35 -27 40 -24 6 3 4 -3 -4 -12 -10 -13 -11 -20 -2 -31 8
-10 9 -16 1 -21 -5 -3 -10 -1 -10 4 0 6 -4 11 -8 11 -5 0 -9 -6 -9 -14 0 -9
10 -12 29 -11 26 2 38 -8 21 -18 -5 -2 -3 -2 4 -1 7 2 15 -1 18 -6 4 -6 11
-10 18 -10 6 0 2 7 -9 16 -17 14 -17 15 -1 10 10 -3 15 -2 12 4 -3 6 1 7 10 4
11 -5 14 -2 9 12 -6 17 -5 17 9 -1 l16 -20 1 20 c1 19 2 19 10 -1 5 -12 14
-25 21 -30 8 -4 10 -3 5 4 -4 6 6 18 24 27 31 16 41 29 15 19 -21 -9 -19 2 7
26 12 11 28 18 34 16 7 -3 11 3 10 12 -2 9 10 30 26 45 15 16 25 33 22 39 -4
6 2 8 12 6 13 -2 18 -11 16 -23 -2 -11 -1 -17 2 -14 15 14 14 49 -2 61 -13 11
-14 11 -7 -1 5 -9 4 -12 -2 -8 -12 8 -36 -17 -26 -26 3 -4 4 -7 1 -7 -3 0 -12
8 -19 17 -10 11 -10 14 -1 9 6 -4 12 -3 12 1 0 5 9 14 21 21 18 11 24 11 38
-2 15 -14 18 -14 18 -1 0 8 -5 11 -10 8 -5 -3 -8 0 -5 8 3 8 9 14 14 14 5 0
22 9 37 20 26 19 27 22 12 40 -16 20 -16 20 -6 -2 8 -16 7 -22 -3 -26 -7 -3
-19 0 -25 6 -8 8 -9 5 -6 -12 2 -12 0 -19 -5 -16 -5 3 -11 1 -14 -4 -7 -11
-46 -2 -46 11 0 5 8 4 19 -1 24 -13 47 9 30 26 -14 14 -3 34 15 27 16 -6 40
21 32 35 -4 6 -14 7 -24 4 -9 -3 -14 -3 -11 1 4 4 15 8 27 11 16 3 20 -1 18
-18 -1 -12 6 -30 15 -39 17 -16 18 -16 16 2 -1 10 -5 16 -10 13 -5 -3 -7 11
-4 30 3 20 2 38 -2 40 -3 2 0 2 7 1 6 -2 12 1 12 6 0 5 13 7 29 5 21 -2 35 3
48 18 10 11 13 17 6 14 -15 -9 -27 9 -16 26 8 12 13 32 15 55 2 17 15 15 22
-4 3 -8 2 -12 -4 -9 -6 3 -10 1 -10 -5 0 -17 25 -6 26 11 0 8 -5 20 -10 28 -8
11 -8 13 2 7 7 -4 14 -1 18 8 7 19 32 28 40 14 5 -7 2 -8 -6 -3 -9 6 -11 4 -5
-5 6 -9 4 -11 -5 -5 -9 6 -11 4 -5 -5 6 -9 4 -11 -5 -5 -9 5 -11 4 -6 -4 4 -6
11 -9 16 -6 4 3 10 2 13 -2 2 -5 2 -3 1 4 -2 7 1 15 6 18 7 4 7 13 0 24 -5 10
-6 22 -2 26 4 5 -1 5 -11 2 -11 -4 -16 -3 -12 4 4 6 13 8 21 5 9 -3 23 7 35
27 12 17 18 24 15 14 -4 -12 -2 -16 5 -11 7 4 10 2 8 -5 -3 -7 -7 -11 -11 -9
-3 2 -15 -5 -27 -16 -21 -19 -20 -37 2 -35 9 0 8 2 -1 6 -6 2 -9 9 -6 14 3 6
11 5 20 -2 12 -10 15 -10 12 2 -2 8 3 13 12 11 8 -2 12 0 8 3 -10 10 21 67 32
60 6 -4 10 -2 10 3 0 6 -7 13 -16 16 -10 4 -13 2 -8 -6 5 -7 3 -8 -6 -3 -8 5
-11 4 -7 -3 5 -6 -1 -8 -15 -4 -21 5 -21 5 2 14 20 7 22 11 10 18 -8 5 -17 7
-21 4 -4 -2 -10 0 -14 5 -3 6 4 8 17 5 13 -3 28 -6 35 -6 7 -1 9 -6 6 -12 -3
-6 -3 -8 2 -4 4 4 15 2 24 -5 14 -10 14 -10 3 5 -8 9 -10 23 -6 29 5 8 3 9 -6
4 -9 -6 -11 -4 -6 4 5 7 15 10 23 7 8 -3 11 -1 8 4 -6 10 7 14 35 11 13 -2 13
-1 0 8 -13 9 -12 12 5 25 11 9 24 16 28 16 5 0 5 5 1 12 -5 8 -2 9 11 4 14 -5
16 -4 7 7 -15 17 3 38 27 30 12 -4 13 -3 3 5 -8 5 -13 12 -13 16 1 3 -1 6 -4
6 -3 0 -5 -3 -4 -6 0 -3 -9 -14 -21 -24 -12 -10 -21 -21 -21 -24 3 -25 0 -30
-10 -16 -9 13 -10 12 -5 -3 3 -10 2 -15 -3 -12 -5 3 -12 -4 -16 -15 -7 -23
-13 -24 -35 -9 -13 8 -12 9 4 7 10 -2 21 3 24 11 2 8 0 11 -5 8 -5 -3 -10 0
-10 8 0 12 3 12 16 2 12 -10 14 -9 8 5 -3 10 -3 17 1 17 20 -3 25 2 12 12 -13
9 -13 10 2 6 22 -7 40 15 32 39 -5 16 -4 16 5 4 10 -13 15 -8 12 12 0 4 13 17
29 30 22 16 27 24 18 31 -9 6 -8 7 4 3 11 -3 21 2 27 12 5 9 12 14 16 11 3 -4
-1 -13 -9 -22 -14 -13 -14 -16 1 -29 11 -9 14 -9 9 -1 -10 17 12 55 27 46 9
-5 9 -3 0 9 -7 8 -9 19 -5 23 4 5 1 5 -6 1 -7 -4 -9 -12 -6 -18 4 -7 2 -8 -5
-4 -6 4 -9 12 -6 17 6 8 -9 13 -28 10 -5 -1 -6 3 -2 9 4 7 12 7 25 0 13 -7 21
-6 30 5 7 8 9 15 4 15 -5 0 -1 5 8 11 9 5 15 16 12 23 -6 17 23 29 32 14 5 -7
2 -8 -6 -3 -9 6 -11 4 -5 -5 6 -9 4 -11 -6 -5 -8 5 -11 5 -7 0 4 -4 3 -14 -3
-22 -6 -7 -8 -13 -3 -13 4 0 -1 -7 -12 -15 -10 -8 -14 -15 -7 -15 6 0 15 5 18
10 5 8 11 8 20 0 10 -8 15 -8 21 1 4 7 3 9 -3 6 -6 -4 -16 0 -22 7 -8 9 -8 17
-2 20 5 3 12 0 15 -6 3 -7 4 -4 3 6 -1 12 7 25 21 32 l23 12 -27 6 c-22 6 -25
9 -13 17 7 5 10 9 5 9 -5 0 -3 7 4 15 6 8 9 19 5 24 -4 7 1 8 11 4 13 -5 15
-3 9 7 -6 10 -4 11 6 4 21 -12 49 -15 49 -5 0 6 -5 13 -12 17 -7 4 -8 3 -4 -4
5 -8 2 -10 -8 -6 -9 3 -16 9 -16 13 0 11 33 10 48 -2 10 -8 12 -7 10 3 -2 8 4
15 12 15 8 0 14 7 12 14 -1 7 5 20 15 27 17 13 17 14 -2 7 -18 -6 -18 -5 -6
10 8 10 16 15 19 12 3 -3 11 4 19 15 18 26 1 62 -24 53 -15 -6 -16 -5 -3 9 13
14 16 14 27 -1 11 -14 12 -14 13 -1 0 9 -6 22 -12 29 -11 11 -9 11 9 0 16 -10
19 -17 12 -30 -6 -12 -5 -20 3 -25 7 -4 8 -3 4 4 -4 8 0 12 11 12 15 0 16 2 3
10 -13 8 -12 10 3 10 9 0 17 4 17 10 0 5 -6 7 -14 4 -8 -3 -17 0 -22 7 -4 8
-3 10 4 5 7 -4 12 -1 12 9 0 10 -5 13 -12 9 -7 -4 -8 -3 -4 5 6 9 11 9 21 1
18 -15 36 -4 28 17 -4 10 -2 14 5 9 6 -3 17 3 25 14 7 11 16 18 18 15 3 -2 5
5 6 15 1 11 -2 20 -8 20 -5 0 -8 -3 -7 -7 4 -12 -26 -49 -39 -48 -6 0 -15 4
-20 9 -5 6 -2 6 6 1 11 -6 13 -4 8 8 -3 10 -2 17 3 17 6 0 10 -5 10 -11 0 -5
5 -7 12 -3 7 5 5 11 -8 21 -16 12 -16 14 -2 11 9 -2 24 6 32 17 14 20 15 20
25 -5 8 -21 10 -22 11 -5 0 17 2 18 11 5 9 -13 10 -13 5 0 -3 8 -9 23 -12 33
-4 9 -10 17 -15 17 -5 0 -9 5 -9 11 0 8 4 8 14 0 10 -8 16 -9 21 -1 3 5 1 10
-6 10 -7 0 -10 3 -6 6 3 3 11 3 17 -1 8 -5 8 -11 -1 -21 -10 -12 -9 -17 0 -27
10 -9 11 -8 5 6 -4 13 -2 16 9 11 8 -3 18 -1 22 5 3 7 0 8 -9 5 -11 -4 -14 1
-11 23 2 15 -2 34 -7 41 -7 8 -7 12 0 12 5 0 13 -7 16 -16 5 -13 9 -14 20 -5
8 7 16 8 18 4 3 -4 3 -2 2 5 -2 7 2 21 8 32 9 15 16 16 32 9 19 -9 20 -9 4 4
-10 8 -15 17 -11 20 3 4 12 2 19 -4 8 -7 14 -7 19 1 4 6 1 9 -6 8 -6 -2 -14 3
-17 11 -2 8 0 11 6 7 7 -4 8 3 2 24 l-9 30 32 -16 c24 -11 27 -11 15 -1 -10 8
-14 18 -10 22 4 5 1 5 -6 0 -11 -6 -12 -3 -4 12 7 12 7 25 1 36 -8 13 -7 15 7
10 12 -4 15 -3 10 5 -5 8 -2 10 8 6 10 -4 20 3 27 20 7 14 16 23 21 20 5 -3 4
-12 -2 -19 -7 -8 -8 -20 -4 -26 5 -9 2 -10 -9 -6 -10 3 -17 2 -17 -4 0 -6 8
-9 17 -7 9 2 15 7 14 11 -1 4 5 20 14 34 9 14 13 23 7 19 -5 -3 -13 2 -17 12
-6 16 -7 16 -21 -2 -8 -11 -14 -15 -14 -9 0 13 30 39 30 27 0 -5 4 -3 8 3 4 7
18 14 30 16 12 2 24 6 28 10 4 3 -3 5 -15 2 -11 -2 -21 1 -21 6 0 6 -6 7 -12
2 -17 -10 -42 -14 -33 -5 4 4 11 8 16 8 5 1 12 3 17 4 4 1 19 1 33 0 16 -1 29
5 33 15 3 9 11 13 18 9 6 -4 4 3 -5 15 -16 24 -13 51 5 51 7 0 7 -4 0 -12 -7
-9 -5 -17 6 -28 14 -13 15 -12 9 4 -10 25 11 50 28 36 10 -8 15 -8 21 1 4 7 3
9 -4 5 -6 -3 -16 3 -22 14 -10 18 2 31 13 13 2 -5 2 -3 1 4 -4 15 20 35 30 25
4 -4 7 -2 6 3 -1 6 -1 13 0 18 1 4 3 12 4 17 0 6 5 9 11 8 5 -2 9 -7 7 -11 -1
-5 2 -5 8 -2 8 5 6 13 -5 25 -11 12 -13 20 -6 25 6 3 11 0 11 -7 1 -9 4 -8 10
3 10 17 7 49 -6 72 -4 6 2 4 13 -6 22 -19 33 -22 33 -6 0 5 -4 7 -10 4 -9 -6
-15 8 -11 29 1 5 -6 5 -16 2 -15 -6 -15 -5 2 12 11 11 24 17 29 14 4 -2 2 -8
-5 -13 -11 -7 -11 -9 1 -9 13 0 13 -1 0 -10 -8 -5 -10 -10 -4 -10 16 0 49 27
49 42 1 7 6 12 13 11 7 -2 12 2 12 7 0 14 -13 13 -28 -2 -7 -7 -13 -8 -13 -3
-6 47 -5 74 3 69 4 -3 11 2 14 10 6 16 37 17 51 1 5 -4 -2 -6 -14 -3 -15 4
-20 2 -16 -8 4 -10 10 -11 25 -3 15 8 17 13 7 25 -6 8 -14 12 -17 9 -7 -7 -32
15 -32 29 0 6 5 3 11 -7 6 -9 15 -15 20 -11 6 3 20 -2 31 -13 21 -18 21 -18 7
5 -8 12 -17 22 -21 22 -4 0 -5 7 -2 15 5 11 2 14 -12 9 -11 -4 -16 -4 -13 0 4
4 16 8 28 11 11 2 26 7 32 11 7 4 10 1 7 -7 -3 -8 -11 -13 -17 -12 -6 2 -11
-2 -11 -7 0 -17 18 -11 33 10 8 11 18 17 23 12 5 -4 6 -3 2 2 -4 5 0 15 10 22
15 12 15 12 -5 7 -13 -3 -23 -8 -23 -12 0 -3 -14 -7 -31 -7 -31 -2 -34 6 -3
10 10 2 20 9 22 16 3 7 0 10 -6 6 -6 -4 -8 2 -4 16 l5 22 8 -22 c10 -27 14
-27 47 -1 26 20 26 21 4 14 -22 -6 -22 -5 -10 14 7 12 20 21 28 21 8 1 2 7
-15 15 -16 7 -24 14 -17 14 7 1 10 6 7 12 -5 7 -14 4 -28 -8 l-22 -18 19 23
c13 15 23 19 30 12 17 -17 29 -11 15 8 -13 15 -12 16 3 4 9 -8 14 -20 11 -28
-3 -8 0 -14 7 -14 6 0 9 4 5 9 -3 6 3 15 12 21 17 11 17 11 1 6 -12 -3 -18 0
-18 9 0 9 6 12 18 9 9 -4 4 3 -11 14 -18 12 -25 22 -18 26 6 4 11 2 11 -5 0
-7 3 -9 7 -6 3 4 12 2 20 -5 7 -6 16 -8 20 -4 3 3 1 6 -5 6 -7 0 -12 7 -12 16
0 8 -4 12 -10 9 -5 -3 -10 -2 -10 4 0 5 5 11 11 13 6 2 12 18 12 35 1 17 5 29
10 26 4 -2 14 1 22 7 8 6 18 9 22 7 5 -3 17 1 28 9 19 15 19 15 -6 10 -21 -3
-26 -1 -25 12 2 9 9 18 17 20 11 3 11 1 -1 -7 -12 -9 -11 -10 8 -8 21 3 55 27
37 27 -4 0 0 10 11 22 19 22 19 22 0 8 -18 -14 -19 -13 -13 3 6 15 3 17 -14
12 -15 -5 -19 -4 -15 4 4 6 14 11 23 11 9 0 14 3 10 6 -3 4 1 20 9 35 11 23
12 34 3 50 -6 11 -8 23 -6 26 3 2 8 -5 12 -16 7 -23 30 -28 38 -8 4 9 6 9 6 0
1 -7 6 -13 12 -13 8 0 7 5 -2 16 -10 13 -10 17 1 24 8 5 11 12 8 16 -4 4 -2
16 4 28 7 11 11 24 10 29 -1 4 6 7 16 8 10 0 12 3 4 6 -6 2 -10 9 -6 14 3 5
-2 12 -10 15 -23 9 -20 19 9 32 32 15 38 15 29 0 -4 -6 -3 -8 4 -5 5 4 9 15 7
25 -1 9 2 23 8 30 5 6 6 12 1 12 -5 0 -2 5 6 11 13 9 13 10 0 6 -8 -2 -16 -9
-16 -15 -1 -7 -3 -15 -4 -19 -1 -5 -2 -11 -2 -15 1 -3 -5 -9 -13 -12 -10 -3
-12 0 -8 11 4 11 2 14 -5 9 -7 -4 -12 -2 -12 4 0 7 6 10 14 7 18 -7 28 30 15
54 -7 15 -6 17 5 13 10 -4 14 0 12 13 -2 10 2 21 8 25 7 5 7 8 -2 8 -10 0 -9
4 3 16 9 9 19 13 23 10 3 -4 0 -11 -8 -16 -8 -6 -11 -10 -7 -10 4 0 3 -8 -2
-18 -7 -13 -6 -23 2 -32 9 -10 9 -11 0 -6 -6 3 -14 3 -17 -2 -2 -4 4 -9 16 -9
14 -1 18 3 14 14 -5 12 -1 14 14 10 11 -3 18 -1 14 4 -3 5 -12 9 -20 9 -8 0
-14 4 -14 10 0 5 8 7 18 4 13 -5 14 -4 3 4 -9 7 -10 15 -3 28 7 14 7 24 -2 36
-7 10 -15 16 -18 13 -2 -3 -5 2 -5 10 0 8 2 15 4 15 9 0 32 -28 27 -33 -3 -2
2 -7 10 -10 11 -4 13 -1 9 10 -5 12 -3 14 8 8 12 -7 12 -6 1 7 -11 14 -10 18
5 27 10 6 13 11 7 11 -16 0 -35 -25 -26 -35 4 -5 1 -5 -6 -1 -9 6 -9 12 0 29
10 20 10 21 -5 8 -10 -7 -17 -9 -17 -3 0 12 29 24 41 17 5 -4 6 0 4 8 -3 7 1
26 9 42 8 16 12 33 9 38 -3 5 5 6 18 3 23 -7 23 -6 4 6 -26 16 -26 35 0 55 16
13 17 15 3 10 -12 -4 -18 -1 -18 7 0 8 8 13 18 11 9 -1 11 0 5 2 -16 6 -16 16
-2 30 9 9 8 16 -3 27 -9 8 -19 12 -23 8 -5 -4 -5 -1 -1 6 4 6 14 12 22 12 9 0
12 -5 8 -12 -5 -7 -3 -8 6 -3 11 7 9 12 -8 23 -20 13 -20 42 0 42 6 0 4 -8 -3
-17 -7 -10 -9 -15 -5 -11 5 4 16 2 25 -5 14 -10 14 -10 3 5 -8 10 -9 19 -3 22
5 4 8 15 6 26 -2 11 2 20 8 20 7 0 6 4 -3 10 -8 5 -11 12 -7 16 3 4 15 1 24
-7 15 -11 15 -10 -1 9 -30 35 -33 32 -38 -33 -1 -14 -5 -25 -9 -25 -4 0 -7 12
-5 28 1 15 -2 34 -8 42 -6 8 -6 12 -2 8 5 -4 15 -3 22 3 17 14 -1 53 -19 42
-7 -4 -7 0 2 10 7 9 17 15 20 12 4 -2 8 9 8 25 0 24 -3 27 -14 19 -8 -8 -13
-8 -13 -1 0 18 24 20 43 4 11 -10 17 -11 17 -4 0 7 -4 12 -10 12 -5 0 -10 10
-10 23 0 18 2 19 11 7 9 -13 10 -12 5 3 -3 10 0 17 7 17 7 0 4 5 -6 11 -14 8
-15 14 -7 24 8 9 8 15 0 20 -6 3 -8 11 -4 16 3 6 12 3 21 -8 12 -14 12 -12 -1
9 -11 19 -13 29 -4 34 7 5 5 11 -7 20 -16 12 -16 16 -4 31 9 11 10 14 2 9 -7
-4 -13 -3 -13 3 0 5 6 12 13 14 10 4 10 6 0 6 -7 1 -13 6 -13 11 0 7 7 7 23 0
21 -11 21 -10 3 4 -10 9 -23 13 -29 9 -5 -3 -6 3 -3 15 5 14 0 28 -13 41 -13
13 -16 21 -8 25 8 3 3 12 -13 25 -17 14 -19 19 -7 15 10 -4 17 -3 15 2 -2 5 2
9 7 9 6 0 9 -3 7 -7 -1 -5 2 -8 8 -8 5 0 10 5 10 11 0 5 4 8 8 5 5 -3 9 1 9 9
0 8 -4 15 -9 15 -4 0 -8 -5 -8 -11 0 -8 -5 -8 -15 1 -11 9 -19 10 -28 1 -10
-8 -14 -7 -14 4 0 7 3 14 6 13 21 -2 31 4 25 14 -4 7 -3 8 5 4 6 -4 8 -12 5
-18 -4 -7 -2 -8 4 -4 6 4 9 13 5 21 -6 17 -33 21 -33 5 0 -5 -5 -10 -11 -10
-5 0 -8 4 -4 9 3 5 1 12 -5 16 -5 3 -10 14 -9 23 0 12 3 10 9 -6 8 -19 13 -21
29 -13 10 6 22 7 26 3 4 -4 2 4 -6 18 -7 14 -12 31 -11 38 2 6 -1 12 -6 12 -5
0 -9 6 -9 13 0 6 -4 21 -9 31 -5 14 -4 17 4 12 8 -5 10 -1 5 10 -4 10 -2 15 4
11 5 -3 10 0 10 8 0 8 -4 15 -9 15 -4 0 -8 -5 -8 -11 0 -5 -5 -7 -10 -4 -7 4
-7 13 0 26 6 11 16 16 22 13 7 -4 8 -2 4 5 -6 9 -11 9 -24 -1 -13 -11 -15 -10
-9 4 3 10 -1 25 -11 35 -9 11 -13 13 -8 6 5 -7 5 -13 0 -13 -5 0 -2 -5 6 -10
13 -8 13 -10 1 -10 -12 0 -12 -3 -3 -12 15 -15 15 -28 1 -28 -5 0 -8 4 -4 9 3
6 -3 14 -12 20 -10 6 -13 11 -6 11 12 0 12 17 0 37 -5 7 1 16 13 23 11 6 20
16 20 23 0 8 -4 7 -9 -2 -8 -12 -12 -10 -22 12 -6 14 -15 25 -18 22 -4 -2 -13
0 -20 4 -9 6 -10 11 -2 15 6 4 11 2 11 -4 0 -6 4 -9 9 -6 5 3 14 -1 21 -9 7
-8 17 -15 23 -15 6 0 2 7 -9 16 -17 14 -17 15 -1 10 11 -4 16 -2 12 5 -4 6
-13 8 -19 6 -24 -9 -36 9 -37 56 -1 26 -6 47 -11 47 -5 0 -7 13 -5 30 3 17 1
28 -5 27 -6 -1 -13 4 -16 12 -3 8 0 11 7 7 7 -5 9 -1 4 9 -3 9 -9 13 -12 8 -3
-4 -10 -11 -14 -14 -4 -3 1 -14 11 -25 14 -16 28 -73 14 -59 -3 2 -13 0 -23
-5 -12 -7 -20 -7 -24 0 -4 6 -3 10 2 9 34 -6 49 33 17 45 -8 3 -12 10 -9 16 3
5 1 10 -5 10 -7 0 -10 6 -7 14 9 22 -5 27 -21 8 -10 -12 -9 -9 2 10 9 15 12
29 7 33 -5 3 -12 -1 -15 -7 -3 -7 -3 -2 0 11 6 21 4 23 -17 18 -23 -6 -23 -5
-4 9 18 13 20 12 32 -11 15 -27 26 -34 17 -10 -5 11 -1 14 12 9 11 -3 7 2 -9
13 -15 11 -24 23 -20 28 5 4 -2 3 -14 -4 -22 -11 -40 0 -29 17 5 9 -27 64 -35
60 -3 -2 4 5 14 15 16 14 22 15 36 5 14 -11 14 -11 3 4 -8 9 -20 14 -28 11 -8
-3 -14 0 -14 6 0 6 5 11 10 11 6 0 10 5 10 10 0 6 -6 9 -12 8 -7 -2 -11 4 -10
12 2 8 0 12 -4 8 -8 -9 -34 10 -34 24 0 5 4 7 8 4 4 -2 8 4 9 14 1 15 -4 12
-26 -12 -19 -22 -28 -26 -28 -15 0 9 4 14 8 12 9 -6 17 16 12 33 -3 6 -9 12
-15 12 -6 0 -6 -6 2 -15 9 -10 9 -15 1 -15 -6 0 -11 5 -11 11 0 5 -5 7 -12 3
-7 -5 -8 -3 -2 7 5 8 9 21 9 29 0 8 8 15 17 15 9 0 19 3 23 6 3 4 -5 6 -17 5
-14 -1 -27 -10 -33 -23 -5 -13 -13 -23 -17 -23 -10 0 -6 23 5 31 5 3 10 18 11
32 3 23 1 25 -15 16 -13 -7 -26 -6 -41 3 -13 7 -30 11 -38 9 -8 -1 -4 6 10 16
14 10 28 17 33 15 4 -1 7 2 7 8 0 13 -6 13 -41 -6 -29 -15 -30 -15 -20 5 9 16
7 23 -11 35 -12 8 -26 12 -32 9 -6 -4 -5 0 2 9 10 13 9 18 -5 29 -15 12 -16
12 -10 -4 4 -11 3 -16 -3 -12 -12 7 -8 32 8 63 8 14 9 22 2 22 -5 0 -10 -6
-10 -14 0 -20 -52 -16 -57 4 -3 10 -2 11 4 4 11 -15 40 -13 40 3 0 9 -4 10
-13 2 -10 -8 -12 -6 -11 10 1 12 5 21 9 21 4 0 8 5 8 11 0 8 -5 8 -15 -1 -8
-7 -12 -16 -9 -21 10 -17 -9 -9 -22 9 -18 23 -18 37 0 23 11 -9 16 -9 22 0 4
8 3 9 -4 5 -7 -4 -12 -3 -12 2 0 15 -28 23 -36 10 -5 -7 -2 -8 6 -3 9 5 11 4
6 -3 -12 -20 -24 -13 -22 13 1 22 5 25 26 20 22 -4 22 -4 7 6 -10 6 -24 8 -31
6 -16 -6 -36 11 -32 27 2 6 1 8 -1 4 -3 -5 -10 -8 -16 -8 -5 0 -7 3 -4 7 4 3
-1 12 -11 20 -15 13 -15 13 8 8 15 -4 6 5 -22 21 -26 15 -45 31 -42 35 3 5 0
9 -6 9 -6 0 -10 -6 -9 -12 3 -28 -1 -48 -11 -48 -7 0 -7 6 0 20 13 25 2 26
-17 3 -13 -16 -13 -16 -4 4 7 14 8 24 1 28 -5 3 -10 1 -10 -4 0 -6 -5 -11 -10
-11 -6 0 -5 8 2 19 11 18 13 18 25 3 12 -15 13 -14 3 6 -6 12 -8 28 -4 34 4 7
3 8 -5 4 -7 -4 -15 2 -20 16 -7 16 -10 18 -10 6 -1 -9 4 -20 9 -23 6 -3 10
-11 10 -17 0 -6 -9 -3 -20 7 -11 10 -17 22 -14 26 3 5 -5 5 -18 0 -45 -17 -73
25 -34 51 6 4 -9 6 -32 5 -24 -2 -46 1 -48 5 -3 4 -12 5 -22 2 -14 -5 -14 -4
-2 4 9 7 18 8 26 1 8 -7 14 -6 19 1 3 5 -2 10 -11 10 -16 0 -15 2 2 23 10 12
15 19 10 15 -5 -4 -15 -3 -23 3 -9 9 -13 8 -13 0 0 -6 5 -11 11 -11 5 0 7 -5
4 -10 -10 -16 -34 7 -30 28 1 9 0 11 -2 4 -3 -7 -8 -10 -13 -7 -5 3 -6 13 -3
23 7 18 5 17 -17 -12 -12 -16 -12 -18 -1 -11 10 6 12 4 6 -5 -5 -8 -4 -11 3
-6 6 3 13 2 17 -4 9 -14 -18 -13 -33 2 -8 8 -8 17 -1 31 7 12 7 17 1 13 -10
-6 -27 21 -24 37 1 4 -3 7 -9 7 -6 0 -9 -6 -6 -14 9 -23 -5 -27 -20 -6 -8 11
-21 20 -29 20 -9 0 -12 5 -8 12 5 7 3 8 -6 3 -10 -6 -9 -11 5 -22 11 -7 22
-13 27 -13 4 0 8 -4 8 -8 0 -5 -7 -9 -15 -9 -8 0 -12 4 -9 9 3 4 1 8 -5 8 -5
0 -11 -5 -13 -12 -3 -9 -6 -9 -12 0 -4 7 -2 12 4 12 6 0 8 5 5 10 -5 8 -11 7
-21 -1 -10 -8 -14 -8 -14 0 0 6 4 11 8 11 5 0 14 12 21 28 l12 27 -22 -25
c-11 -14 -18 -19 -14 -13 3 7 1 21 -5 30 -11 17 -11 17 -6 0 7 -22 -10 -57
-27 -56 -9 0 -9 2 1 6 6 2 12 9 12 15 0 6 -7 8 -14 5 -10 -4 -13 -1 -9 9 4 12
8 12 22 2 12 -10 11 -7 -2 9 -14 16 -15 22 -5 26 9 4 9 6 1 6 -6 1 -15 -4 -18
-9 -5 -8 -11 -7 -21 1 -10 8 -11 15 -4 24 8 9 8 15 0 20 -6 4 -9 1 -8 -6 2 -8
-10 -13 -30 -15 -32 -2 -32 -1 -16 17 21 23 12 25 -11 3 -12 -13 -13 -19 -4
-30 10 -12 9 -13 -5 -8 -11 4 -16 14 -13 24 2 10 1 24 -4 31 -7 11 -9 11 -9 1
0 -7 -5 -10 -10 -7 -6 4 -8 11 -5 16 4 5 2 9 -4 9 -5 0 -9 -9 -8 -21 1 -14 7
-19 18 -16 12 3 16 0 12 -9 -4 -11 -9 -11 -26 -2 -12 7 -26 11 -32 9 -5 -1 -7
1 -3 5 4 4 2 14 -5 23 -11 14 -10 14 6 2 11 -9 17 -10 17 -2 0 6 -4 12 -10 12
-5 1 -14 3 -20 4 -5 1 -13 3 -17 4 -5 1 -1 6 7 12 12 9 12 10 -4 5 -11 -4 -23
0 -31 10 -9 14 -14 14 -20 4 -5 -8 -4 -11 3 -6 6 3 13 -3 17 -14 4 -11 10 -18
15 -15 5 3 14 -4 20 -15 7 -13 7 -20 0 -20 -5 0 -10 8 -10 18 0 13 -2 14 -9 4
-7 -11 -9 -10 -15 3 -3 9 -11 13 -17 9 -8 -4 -9 -3 -5 4 10 16 -7 15 -23 0
-11 -10 -13 -10 -7 0 5 7 1 12 -11 12 -15 0 -16 2 -3 10 9 6 17 5 23 -3 6 -8
7 -6 3 6 -3 10 -6 21 -6 23 0 2 -5 4 -11 4 -5 0 -8 -4 -5 -9 10 -16 -54 -18
-77 -2 -12 9 -23 15 -24 13 -7 -5 -23 -1 -23 6 0 5 7 9 15 9 8 0 12 -4 9 -8
-2 -4 5 -6 16 -4 13 3 18 0 14 -7 -4 -7 -3 -8 4 -4 7 4 12 2 12 -5 0 -8 3 -9
13 0 8 6 17 8 21 4 4 -4 4 1 0 11 -5 14 -9 15 -16 4 -7 -10 -11 -9 -23 6 -9
12 -15 15 -15 7 0 -11 -3 -11 -15 -1 -8 7 -15 9 -15 4 0 -5 -5 -2 -10 6 -5 8
-7 24 -4 35 4 15 1 14 -10 -5 -17 -29 -21 -53 -5 -30 9 12 10 12 5 -3 -3 -10
-6 -21 -6 -23 0 -2 -8 4 -18 14 -15 14 -15 19 -4 27 11 9 9 11 -7 11 -11 0
-17 -4 -15 -8 3 -4 0 -8 -6 -8 -6 0 -9 -4 -6 -9 7 -11 -13 -9 -32 2 -7 5 -10
13 -7 18 4 5 0 9 -8 9 -7 0 -23 9 -34 20 -19 17 -22 17 -27 3 -4 -9 -4 -18 -1
-21 3 -3 5 0 5 7 0 8 8 6 25 -5 14 -9 23 -19 21 -22 -3 -3 -12 1 -20 7 -8 7
-20 10 -25 7 -5 -4 -13 -2 -16 4 -4 6 -15 8 -26 5 -10 -4 -19 -2 -19 3 0 6
-11 9 -25 7 -25 -2 -25 -1 -10 21 20 30 9 31 -16 2 l-20 -23 6 25 6 25 -15
-25 c-9 -14 -15 -20 -16 -14 0 5 -10 11 -22 11 -13 1 -41 4 -63 7 -22 3 -59 7
-83 9 -41 3 -67 21 -56 39 3 5 -6 3 -20 -3 -14 -7 -23 -15 -21 -19 3 -4 -3 -7
-13 -6 -9 0 -25 13 -34 29 -10 15 -20 27 -23 27 -3 0 2 -11 10 -24 10 -15 12
-27 6 -30 -5 -4 -13 -2 -16 4 -4 6 -16 8 -28 5 -21 -6 -22 -6 -3 9 11 9 15 16
9 16 -7 0 -18 -7 -27 -15 -16 -17 -30 -20 -21 -6 3 5 1 12 -5 16 -6 4 -8 11
-5 16 7 11 4 11 -13 0z m198 -41 c0 -5 -4 -10 -10 -10 -5 0 -10 5 -10 10 0 6
5 10 10 10 6 0 10 -4 10 -10z m920 -261 c0 -5 4 -8 9 -5 5 3 14 -1 21 -9 7 -8
17 -12 24 -8 6 4 5 -1 -3 -10 -7 -9 -19 -17 -25 -16 -7 0 -6 2 2 6 6 2 10 9 7
13 -3 5 -12 7 -20 3 -8 -3 -15 0 -15 7 0 6 -4 9 -8 6 -5 -3 -9 1 -9 9 0 8 4
15 9 15 4 0 8 -5 8 -11z m223 -136 c-3 -7 -9 -13 -15 -13 -5 0 -6 5 -3 10 6
10 -6 14 -35 11 -13 -2 -13 -1 0 8 8 5 17 8 21 5 4 -2 11 1 15 7 9 15 24 -9
17 -28z m72 -43 c3 -5 1 -10 -4 -10 -6 0 -11 5 -11 10 0 6 2 10 4 10 3 0 8 -4
11 -10z m45 -66 c0 -2 -9 0 -20 6 -11 6 -20 13 -20 16 0 2 9 0 20 -6 11 -6 20
-13 20 -16z m23 9 c-3 -7 -6 -13 -8 -13 -2 0 -5 6 -8 13 -3 8 1 14 8 14 7 0
11 -6 8 -14z m91 -62 c12 -13 14 -21 6 -26 -6 -4 -14 -4 -17 -1 -4 3 0 6 7 6
8 0 3 8 -10 20 -13 11 -19 20 -13 20 5 0 18 -9 27 -19z m120 -92 c-2 -4 14
-25 36 -47 37 -35 42 -52 17 -52 -5 0 -6 7 -3 15 4 10 -3 20 -19 27 -14 6 -25
18 -25 27 0 14 -2 14 -10 1 -9 -13 -10 -13 -11 0 -1 8 -1 22 0 30 1 12 -1 11
-12 -2 -16 -20 -32 -24 -20 -5 4 6 8 15 9 20 1 4 2 9 3 12 0 3 10 0 20 -7 11
-7 18 -15 15 -19z m27 -77 c-7 -2 -18 1 -23 6 -8 8 -4 9 13 5 13 -4 18 -8 10
-11z m36 -57 c0 -8 -4 -12 -9 -9 -5 3 -6 10 -3 15 9 13 12 11 12 -6z m44 -12
c13 -16 12 -17 -3 -4 -10 7 -18 15 -18 17 0 8 8 3 21 -13z m59 -67 c0 -2 -8
-10 -17 -17 -16 -13 -17 -12 -4 4 13 16 21 21 21 13z m65 -94 c-3 -3 -11 0
-18 7 -9 10 -8 11 6 5 10 -3 15 -9 12 -12z m55 -76 c0 -2 -7 -7 -16 -10 -8 -3
-12 -2 -9 4 6 10 25 14 25 6z m58 -10 c-2 -1 -12 -8 -22 -16 -13 -10 -17 -10
-12 -2 4 6 3 12 -3 12 -5 0 -12 -5 -14 -10 -3 -6 -4 -5 -3 2 2 7 11 12 20 12
9 -1 16 2 16 8 0 5 5 6 11 3 6 -4 9 -8 7 -9z m7 -96 c-3 -5 -12 -10 -18 -10
-7 0 -6 4 3 10 19 12 23 12 15 0z m90 -78 c1 -14 -4 -18 -18 -14 -13 3 -15 7
-7 12 8 5 9 10 2 14 -6 4 -15 -2 -21 -11 -6 -10 -11 -13 -11 -6 0 6 5 15 10
18 16 10 1 25 -18 18 -13 -4 -13 -2 3 10 18 15 22 14 39 -3 11 -11 20 -28 21
-38z m-10 -102 c3 -6 -1 -7 -9 -4 -18 7 -21 14 -7 14 6 0 13 -4 16 -10z m52
-85 c0 -8 -4 -12 -9 -9 -5 3 -6 10 -3 15 9 13 12 11 12 -6z m109 -160 c-1 -13
-6 -28 -10 -32 -5 -5 -6 -2 -1 6 6 11 4 13 -8 8 -12 -4 -14 -2 -10 11 5 13 21
31 29 32 0 0 0 -11 0 -25z m-1 -55 c-3 -5 -12 -10 -18 -10 -7 0 -6 4 3 10 19
12 23 12 15 0z m26 -60 c20 -11 26 -30 8 -30 -5 0 -7 5 -4 10 6 9 -8 14 -27
11 -5 0 -8 4 -8 9 0 13 6 13 31 0z m9 -70 c0 -5 -2 -10 -4 -10 -3 0 -8 5 -11
10 -3 6 -1 10 4 10 6 0 11 -4 11 -10z m35 -75 c6 0 10 -6 10 -14 0 -25 -19
-22 -32 4 -8 19 -8 23 0 18 7 -4 17 -8 22 -8z m19 -61 c3 -8 2 -12 -4 -9 -6 3
-10 10 -10 16 0 14 7 11 14 -7z m-4 -24 c11 -6 17 -17 14 -25 -4 -8 -1 -15 5
-15 6 0 11 -4 11 -8 0 -5 -6 -9 -14 -9 -8 0 -14 3 -14 6 2 11 -15 46 -26 53
-16 11 3 9 24 -2z m10 -184 c0 -3 -4 -8 -10 -11 -5 -3 -10 -1 -10 4 0 6 5 11
10 11 6 0 10 -2 10 -4z m-6 -52 c3 -8 2 -12 -4 -9 -6 3 -10 10 -10 16 0 14 7
11 14 -7z m35 -18 c-3 -3 -11 5 -18 17 -13 21 -12 21 5 5 10 -10 16 -20 13
-22z m6 -57 c-3 -4 -13 -5 -22 -2 -11 4 -13 8 -5 11 7 2 12 8 12 13 0 6 -4 8
-8 5 -5 -3 -9 2 -9 11 0 12 4 11 19 -7 10 -12 16 -26 13 -31z m0 -30 c-9 -13
7 -39 19 -32 6 4 5 -1 -3 -10 -7 -9 -10 -17 -6 -17 4 0 2 -6 -4 -14 -8 -10 -9
-16 -1 -21 15 -10 3 -24 -20 -22 -24 2 -27 17 -4 17 14 0 15 2 3 17 -8 10 -9
14 -2 10 6 -4 14 -3 18 3 6 10 -3 13 -38 13 -17 0 -14 11 4 13 5 1 14 2 19 3
6 0 10 5 10 11 0 5 -6 8 -12 6 -7 -1 -10 -1 -5 1 4 3 7 9 7 14 0 6 -5 7 -12 3
-6 -4 -8 -3 -5 3 3 5 13 10 21 10 8 0 13 -4 11 -8z m7 -145 c-11 -27 -18 -33
-32 -24 -12 8 -12 10 4 10 15 0 16 3 7 14 -10 12 -9 14 6 12 10 -2 16 -7 15
-12z m-49 -99 c-3 -9 -8 -14 -10 -11 -3 3 -2 9 2 15 9 16 15 13 8 -4z m22 -55
c3 -5 1 -10 -4 -10 -6 0 -11 5 -11 10 0 6 2 10 4 10 3 0 8 -4 11 -10z m-38
-47 c-4 -3 -1 -13 6 -22 11 -14 10 -14 -5 -2 -16 12 -16 31 -1 31 4 0 3 -3 0
-7z m6 -70 c-3 -7 -6 -13 -8 -13 -2 0 -5 6 -8 13 -3 8 1 14 8 14 7 0 11 -6 8
-14z m14 -81 c9 -5 9 -11 0 -22 -12 -15 -60 -23 -51 -8 3 4 14 8 25 8 10 0 19
5 19 11 0 6 -7 8 -16 5 -8 -3 -12 -2 -9 4 7 12 16 12 32 2z m-24 -69 c-5 -12
-3 -14 8 -8 11 7 12 6 2 -7 -7 -8 -9 -19 -5 -23 4 -5 1 -5 -5 -1 -7 4 -13 3
-13 -3 0 -5 5 -12 10 -14 6 -3 5 -4 -2 -3 -12 3 -13 17 -6 73 1 7 5 10 9 7 5
-2 5 -12 2 -21z m-33 -47 c0 -2 -8 -10 -17 -17 -16 -13 -17 -12 -4 4 13 16 21
21 21 13z m23 -32 c7 1 9 1 5 -1 -4 -2 -5 -10 -2 -17 3 -7 -6 -21 -18 -32 -22
-19 -22 -19 -8 0 13 18 13 19 0 14 -11 -4 -16 0 -16 13 0 17 2 17 18 2 10 -9
18 -11 18 -5 0 6 -4 14 -10 17 -5 3 -10 12 -9 18 0 9 2 9 5 0 3 -7 11 -11 17
-9z m-53 -158 c0 -2 -7 -6 -15 -10 -8 -3 -15 -1 -15 4 0 6 7 10 15 10 8 0 15
-2 15 -4z m-4503 -242 c-3 -3 -12 -4 -19 -1 -8 3 -5 6 6 6 11 1 17 -2 13 -5z
m4423 -25 c-5 -9 -7 -18 -5 -21 3 -3 -3 -13 -14 -22 -14 -13 -21 -14 -27 -5
-4 7 -3 10 2 7 10 -7 27 11 32 31 2 8 -3 18 -10 22 -8 5 -6 8 9 6 17 -1 20 -5
13 -18z m-37 -20 c-8 -8 -13 -7 -18 2 -5 8 -4 10 3 5 7 -4 12 -2 12 5 0 7 3 9
7 6 4 -4 2 -12 -4 -18z m-1 -47 c15 -6 15 -9 -3 -32 -12 -14 -18 -20 -15 -13
3 6 0 14 -6 16 -7 3 -4 6 7 7 20 1 20 1 1 15 -21 16 -13 19 16 7z m-53 -69 c0
-5 -4 -17 -9 -28 -8 -17 -8 -16 -7 8 1 15 5 27 9 27 4 0 8 -3 7 -7z m-20 -56
c-2 -1 -15 -11 -29 -22 l-25 -20 19 23 c11 12 24 22 29 22 6 0 8 -1 6 -3z m7
-70 c1 -9 -2 -19 -7 -23 -5 -3 -9 2 -9 11 0 10 -5 13 -12 9 -6 -4 -8 -3 -4 4
3 5 0 13 -6 16 -7 2 -2 4 11 2 14 -2 25 -10 27 -19z m-4161 -82 c-3 -22 5 -30
27 -26 4 0 7 -9 5 -22 -1 -13 3 -21 11 -19 6 1 12 -2 12 -8 0 -5 -7 -10 -16
-10 -8 0 -12 -5 -9 -10 4 -6 11 -8 16 -5 5 4 10 1 10 -4 1 -6 2 -17 3 -23 0
-7 6 -13 13 -13 6 0 15 -4 20 -9 5 -5 2 -6 -6 -1 -9 5 -12 3 -9 -6 3 -8 10
-13 15 -12 6 1 10 -8 9 -20 -1 -13 8 -26 21 -32 20 -10 20 -12 5 -24 -16 -11
-16 -12 1 -7 9 3 17 1 17 -5 0 -6 -8 -9 -17 -7 -12 2 -17 11 -15 23 2 11 1 17
-4 13 -4 -4 -13 -3 -21 3 -10 9 -10 15 -2 25 6 8 7 14 2 14 -9 0 -25 28 -33
55 -2 6 -10 15 -18 21 -8 6 -16 24 -18 39 -2 16 -10 33 -19 37 -8 5 -13 13
-10 19 4 5 1 9 -6 9 -8 0 -8 4 1 15 17 20 18 19 15 -10z m4029 -55 c-6 -6 -10
-3 -10 10 0 13 4 16 10 10 7 -7 7 -13 0 -20z m-47 -165 c-6 -11 -10 -26 -9
-32 2 -7 -3 -13 -9 -13 -7 0 -9 3 -6 6 3 4 2 15 -4 25 -7 15 -6 17 6 13 8 -4
15 -2 15 4 0 6 -6 12 -12 15 -7 3 -3 4 9 4 19 -1 20 -4 10 -22z m-3824 -70
c-19 -14 -37 -10 -27 6 3 5 10 7 15 4 5 -4 9 -1 9 5 0 6 5 8 11 5 6 -5 4 -12
-8 -20z m109 -157 c-9 -9 -7 -15 6 -25 15 -11 13 -12 -10 -2 -16 7 -28 16 -28
21 0 5 4 7 9 3 5 -3 12 -1 16 5 3 5 9 10 13 10 3 0 1 -5 -6 -12z m3539 -21
c-10 -9 -11 -8 -5 6 3 10 9 15 12 12 3 -3 0 -11 -7 -18z m33 -38 c-9 -16 -20
-10 -21 12 -2 17 1 18 12 9 8 -7 12 -16 9 -21z m-78 -71 c-8 -6 -8 -8 2 -8 6
0 12 -5 12 -11 0 -5 -4 -8 -9 -5 -5 3 -14 -1 -21 -9 -7 -8 -9 -15 -4 -15 5 0
-2 -9 -16 -20 -20 -16 -21 -19 -5 -13 14 4 10 -4 -15 -28 -19 -18 -35 -39 -35
-46 0 -7 -3 -13 -7 -13 -5 0 -12 0 -18 0 -5 0 -10 5 -10 11 0 8 6 7 16 -2 15
-12 16 -11 10 9 -5 14 -3 22 4 22 7 0 9 7 6 16 -3 8 -2 12 4 9 11 -7 32 30 22
40 -4 3 -2 6 3 5 21 -5 32 1 32 15 0 8 -6 15 -13 15 -7 0 -16 4 -19 10 -3 6 1
7 10 4 21 -8 45 14 38 34 -6 14 -5 15 9 2 11 -11 12 -17 4 -22z m-3400 -66
c-17 -16 -18 -16 -5 5 7 12 15 20 18 17 3 -2 -3 -12 -13 -22z m119 -132 c3 -5
1 -10 -4 -10 -6 0 -11 5 -11 10 0 6 2 10 4 10 3 0 8 -4 11 -10z m3128 -17 c-4
-10 -2 -14 5 -9 15 9 24 -10 9 -21 -18 -14 -40 -10 -44 7 -4 13 -3 13 6 0 6
-8 11 -10 12 -5 1 6 2 15 4 20 1 6 3 13 3 18 1 4 4 7 7 7 2 0 1 -7 -2 -17z
m-3098 -33 c-3 -5 -12 -10 -18 -10 -7 0 -6 4 3 10 19 12 23 12 15 0z m69 -136
c5 -14 4 -15 -9 -4 -17 14 -19 20 -6 20 5 0 12 -7 15 -16z m2878 -41 c-6 -2
-10 -9 -6 -14 3 -5 0 -9 -5 -9 -12 0 -14 13 -4 23 3 4 11 7 17 6 6 0 5 -3 -2
-6z m-16 -65 c3 -24 -42 -81 -65 -83 -11 -1 -18 2 -15 7 4 5 12 7 20 4 8 -3
14 -1 14 4 0 6 -4 10 -10 10 -5 0 -10 5 -10 11 0 8 4 8 14 0 9 -7 17 -8 20 -2
3 5 3 11 -1 14 -5 2 -3 2 4 1 6 -2 14 3 17 11 4 10 -3 13 -25 10 -17 -2 -27 0
-23 6 3 5 9 7 14 4 4 -3 16 -2 25 1 13 6 14 9 3 16 -11 8 -10 9 1 6 8 -2 15
-11 17 -20z m-2766 -54 c0 -8 -5 -12 -10 -9 -6 4 -8 11 -5 16 9 14 15 11 15
-7z m2710 -48 c0 -3 -4 -8 -10 -11 -5 -3 -10 -1 -10 4 0 6 5 11 10 11 6 0 10
-2 10 -4z m-50 -27 c0 -5 -4 -9 -8 -9 -5 0 -9 7 -9 15 0 8 4 12 9 9 4 -3 8 -9
8 -15z m-35 -67 c-3 -3 -11 0 -18 7 -9 10 -8 11 6 5 10 -3 15 -9 12 -12z m-35
-16 c-7 -7 -13 -7 -20 0 -6 6 -3 10 10 10 13 0 16 -4 10 -10z m-45 -96 l20
-25 -22 19 c-13 11 -23 24 -23 29 0 6 1 8 3 6 1 -2 11 -15 22 -29z m-2305 -20
c0 -5 -2 -10 -4 -10 -3 0 -8 5 -11 10 -3 6 -1 10 4 10 6 0 11 -4 11 -10z m18
-42 c-2 -7 3 -12 10 -10 18 3 15 -15 -4 -22 -13 -5 -14 -9 -4 -21 6 -7 17 -13
23 -11 7 1 9 1 4 -1 -4 -3 -4 -9 -1 -14 4 -6 10 -6 18 0 10 8 18 5 32 -11 10
-12 14 -18 7 -15 -6 4 -14 3 -18 -2 -3 -5 2 -14 11 -19 11 -6 13 -11 5 -16 -6
-4 -11 -1 -11 6 0 10 -3 9 -11 -2 -9 -13 -10 -12 -5 2 3 11 -2 19 -15 23 -11
4 -18 9 -15 12 3 3 -10 24 -29 46 -32 37 -33 41 -17 53 21 17 23 17 20 2z m39
-44 c-3 -3 -12 -4 -19 -1 -8 3 -5 6 6 6 11 1 17 -2 13 -5z m2190 -10 c2 -6
-10 -20 -27 -33 -17 -12 -28 -26 -25 -32 4 -5 1 -9 -6 -9 -8 0 -8 -5 2 -17 7
-10 9 -15 5 -11 -5 4 -15 3 -22 -3 -9 -7 -12 -6 -10 8 2 10 -2 21 -8 25 -8 5
-7 8 2 8 7 0 10 5 7 10 -4 6 -12 7 -18 4 -7 -4 -8 -3 -4 1 10 12 38 15 31 4
-3 -5 -1 -9 4 -9 19 0 21 15 6 39 l-15 26 19 -22 c22 -25 36 -20 22 7 -7 13
-5 16 12 15 12 -1 23 -6 25 -11z m-100 -100 c-3 -3 -12 -4 -19 -1 -8 3 -5 6 6
6 11 1 17 -2 13 -5z m-1952 -64 c3 -6 -1 -7 -9 -4 -18 7 -21 14 -7 14 6 0 13
-4 16 -10z m45 -100 c-14 -9 -7 -14 13 -11 5 1 5 -4 2 -10 -5 -7 -11 -7 -17
-1 -6 6 -18 8 -27 5 -11 -4 -10 -1 4 10 11 9 25 16 30 17 6 0 3 -5 -5 -10z
m1760 0 c0 -5 -5 -10 -11 -10 -5 0 -7 5 -4 10 3 6 8 10 11 10 2 0 4 -4 4 -10z
m-80 -114 c0 -3 -4 -8 -10 -11 -5 -3 -10 -1 -10 4 0 6 5 11 10 11 6 0 10 -2
10 -4z m-1543 -38 c-3 -8 -6 -5 -6 6 -1 11 2 17 5 13 3 -3 4 -12 1 -19z m60
-71 c0 -7 -9 -13 -19 -13 -18 0 -18 1 -2 13 10 7 18 13 19 13 1 0 2 -6 2 -13z
m39 -43 c1 -9 0 -13 -4 -10 -3 4 -7 14 -8 22 -1 9 0 13 4 10 3 -4 7 -14 8 -22z
m1314 -48 c0 -2 -7 -7 -16 -10 -8 -3 -12 -2 -9 4 6 10 25 14 25 6z m-36 -35
c-2 -3 -12 3 -22 13 -16 17 -16 18 5 5 12 -7 20 -15 17 -18z m-1194 -11 c0 -5
-2 -10 -4 -10 -3 0 -8 5 -11 10 -3 6 -1 10 4 10 6 0 11 -4 11 -10z m-6 -35
c-4 -8 -11 -12 -16 -9 -6 4 -5 10 3 15 19 12 19 11 13 -6z m34 -19 c16 5 16 4
0 -7 -14 -11 -15 -15 -1 -38 15 -26 15 -26 -10 2 -17 17 -24 33 -20 44 4 10 8
12 10 6 3 -7 12 -10 21 -7z m1112 4 c0 -5 -2 -10 -4 -10 -3 0 -8 5 -11 10 -3
6 -1 10 4 10 6 0 11 -4 11 -10z m-103 -85 c0 -8 -4 -12 -9 -9 -5 3 -6 10 -3
15 9 13 12 11 12 -6z m-940 -21 c-9 -9 -28 6 -21 18 4 6 10 6 17 -1 6 -6 8
-13 4 -17z m902 -138 c2 -15 -26 -15 -46 -1 -17 13 -17 13 2 12 15 -2 19 3 17
18 l-3 20 14 -20 c8 -11 15 -24 16 -29z m-779 -6 c0 -5 -5 -10 -11 -10 -5 0
-7 5 -4 10 3 6 8 10 11 10 2 0 4 -4 4 -10z m43 -33 c4 3 7 3 7 0 0 -3 -9 -11
-20 -17 -16 -8 -21 -6 -30 12 -11 23 -11 23 6 3 16 -20 16 -20 11 5 -5 22 -5
23 7 8 7 -10 16 -15 19 -11z m514 -122 c0 -8 -4 -12 -9 -9 -5 3 -6 10 -3 15 9
13 12 11 12 -6z m-404 -17 c-4 -7 -8 -16 -9 -20 -1 -5 -2 -11 -3 -14 0 -3 -6
-2 -12 1 -7 5 -4 14 7 26 19 22 29 25 17 7z m82 -79 c-4 -5 -12 -9 -18 -8 -9
0 -8 2 1 6 6 2 9 10 6 15 -4 7 -2 8 5 4 6 -4 9 -12 6 -17z m324 -6 c2 -1 -5
-1 -16 0 -11 0 -20 7 -20 14 0 10 4 10 16 1 9 -7 18 -13 20 -15z m-75 -21 c3
-5 -1 -9 -9 -9 -8 0 -12 4 -9 9 3 4 7 8 9 8 2 0 6 -4 9 -8z m41 -12 c-15 -10
-22 -19 -16 -21 6 -2 3 -9 -8 -16 -16 -10 -22 -9 -33 5 -12 15 -11 16 4 4 11
-9 18 -10 23 -2 3 5 0 10 -7 10 -7 1 -2 7 11 14 17 10 20 15 10 18 -8 3 -1 5
14 5 l29 1 -27 -18z m-88 -35 c0 -8 -4 -12 -9 -9 -5 3 -6 10 -3 15 9 13 12 11
12 -6z m26 -30 c-6 -17 -23 -20 -23 -5 0 6 5 10 11 10 5 0 7 5 3 12 -4 7 -3 8
4 4 6 -4 9 -13 5 -21z m-144 -11 c-7 -9 -5 -15 8 -23 16 -9 16 -10 -4 -8 -12
0 -20 4 -17 8 2 4 0 10 -6 14 -14 8 -5 22 14 22 12 0 13 -4 5 -13z m37 -9 c1
-9 -4 -11 -14 -7 -10 4 -12 7 -4 10 7 2 9 9 5 15 -3 7 -2 8 2 4 5 -4 10 -14
11 -22z m91 -3 c9 -6 8 -11 -5 -19 -15 -9 -18 -7 -19 8 -2 20 5 23 24 11z"/>
<path d="M5475 5470 c10 -11 20 -20 23 -20 3 0 -3 9 -13 20 -10 11 -20 20 -23
20 -3 0 3 -9 13 -20z"/>
<path d="M2230 1540 c0 -5 5 -10 11 -10 5 0 7 5 4 10 -3 6 -8 10 -11 10 -2 0
-4 -4 -4 -10z"/>
<path d="M2295 1469 c-10 -15 3 -25 16 -12 7 7 7 13 1 17 -6 3 -14 1 -17 -5z"/>
<path d="M3766 592 c-3 -5 1 -9 9 -9 8 0 12 4 9 9 -3 4 -7 8 -9 8 -2 0 -6 -4
-9 -8z"/>
<path d="M3799 6693 c-13 -16 -12 -17 4 -4 16 13 21 21 13 21 -2 0 -10 -8 -17
-17z"/>
<path d="M3280 6680 c-12 -7 -10 -9 7 -7 12 0 19 5 17 9 -6 10 -6 10 -24 -2z"/>
<path d="M3506 6678 c3 -4 11 -5 19 -1 21 7 19 12 -4 10 -11 0 -18 -5 -15 -9z"/>
<path d="M3617 6679 c7 -9 9 -20 5 -25 -4 -4 1 -2 11 5 9 7 17 16 17 19 0 3
-3 2 -7 -1 -3 -4 -13 -1 -22 6 -14 10 -14 10 -4 -4z"/>
<path d="M3110 6670 c0 -5 5 -10 11 -10 5 0 7 5 4 10 -3 6 -8 10 -11 10 -2 0
-4 -4 -4 -10z"/>
<path d="M3590 6671 c0 -5 5 -13 10 -16 6 -3 10 -2 10 4 0 5 -4 13 -10 16 -5
3 -10 2 -10 -4z"/>
<path d="M3657 6666 c-3 -7 0 -13 6 -14 7 -1 28 -4 47 -6 19 -3 46 -7 59 -10
22 -5 23 -4 7 13 -9 10 -13 21 -9 26 5 4 2 5 -5 1 -7 -4 -10 -12 -7 -17 4 -5
2 -9 -4 -9 -5 0 -12 6 -14 13 -4 9 -6 8 -6 -2 -1 -11 -4 -11 -18 0 -11 10 -14
10 -9 2 10 -18 -9 -16 -27 2 -12 12 -16 12 -20 1z"/>
<path d="M3796 6662 c-2 -4 -1 -14 4 -22 7 -11 9 -9 7 8 -1 24 -3 26 -11 14z"/>
<path d="M3898 6638 c6 -6 18 -8 28 -6 14 3 12 5 -9 10 -19 3 -25 2 -19 -4z"/>
<path d="M3870 6618 c0 -6 3 -8 7 -5 3 4 11 3 17 -3 7 -5 17 -5 26 2 12 8 12
9 -2 4 -10 -3 -20 -1 -23 4 -9 14 -25 12 -25 -2z"/>
<path d="M4000 6618 c-12 -8 -12 -9 2 -5 9 3 19 1 22 -6 3 -9 5 -9 5 0 1 18
-13 23 -29 11z"/>
<path d="M2690 6600 c-9 -6 -10 -10 -3 -10 6 0 15 5 18 10 8 12 4 12 -15 0z"/>
<path d="M2556 6587 c3 -10 9 -15 12 -12 3 3 0 11 -7 18 -10 9 -11 8 -5 -6z"/>
<path d="M4155 6589 c-4 -6 -5 -12 -2 -15 2 -3 7 2 10 11 7 17 1 20 -8 4z"/>
<path d="M4025 6581 c-6 -11 9 -23 19 -14 9 9 7 23 -3 23 -6 0 -12 -4 -16 -9z"/>
<path d="M4199 6588 c-5 -18 -6 -38 -1 -34 7 8 12 36 6 36 -2 0 -4 -1 -5 -2z"/>
<path d="M4275 6549 c-4 -6 -5 -12 -2 -15 2 -3 7 2 10 11 7 17 1 20 -8 4z"/>
<path d="M2431 6547 c2 -1 13 -9 24 -17 19 -14 19 -14 6 3 -7 9 -18 17 -24 17
-6 0 -8 -1 -6 -3z"/>
<path d="M2315 6491 c-3 -5 -2 -12 3 -15 5 -3 9 1 9 9 0 17 -3 19 -12 6z"/>
<path d="M4536 6413 c-6 -14 -5 -15 5 -6 7 7 10 15 7 18 -3 3 -9 -2 -12 -12z"/>
<path d="M2126 6382 c-3 -5 1 -9 9 -9 8 0 12 4 9 9 -3 4 -7 8 -9 8 -2 0 -6 -4
-9 -8z"/>
<path d="M4745 6320 c-3 -6 1 -7 9 -4 18 7 21 14 7 14 -6 0 -13 -4 -16 -10z"/>
<path d="M1996 6293 c-6 -14 -5 -15 5 -6 7 7 10 15 7 18 -3 3 -9 -2 -12 -12z"/>
<path d="M4855 6231 c6 -11 4 -13 -8 -8 -23 9 -21 0 2 -13 15 -7 19 -7 17 5
-1 8 -6 18 -11 22 -4 5 -5 2 0 -6z"/>
<path d="M4906 6182 c-3 -5 1 -9 9 -9 8 0 12 4 9 9 -3 4 -7 8 -9 8 -2 0 -6 -4
-9 -8z"/>
<path d="M1790 6160 c0 -5 5 -10 11 -10 5 0 7 5 4 10 -3 6 -8 10 -11 10 -2 0
-4 -4 -4 -10z"/>
<path d="M4878 6158 c-8 -20 13 -30 33 -16 11 8 11 9 -3 4 -11 -3 -18 1 -20
12 -3 16 -4 16 -10 0z"/>
<path d="M5005 6099 c-4 -6 -5 -12 -2 -15 2 -3 7 2 10 11 7 17 1 20 -8 4z"/>
<path d="M5050 6061 c0 -6 4 -13 10 -16 6 -3 7 1 4 9 -7 18 -14 21 -14 7z"/>
<path d="M5131 5974 c0 -11 3 -14 6 -6 3 7 2 16 -1 19 -3 4 -6 -2 -5 -13z"/>
<path d="M5246 5858 c3 -5 10 -6 15 -3 13 9 11 12 -6 12 -8 0 -12 -4 -9 -9z"/>
<path d="M5293 5815 c0 -8 4 -12 9 -9 5 3 6 10 3 15 -9 13 -12 11 -12 -6z"/>
<path d="M5262 5802 c-9 -7 -8 -13 8 -27 11 -10 17 -23 13 -29 -3 -6 -3 -8 2
-4 9 8 42 -31 37 -44 -4 -13 5 -9 19 10 7 9 10 14 5 10 -5 -4 -15 0 -24 8 -12
12 -12 18 -3 24 10 5 9 9 -4 14 -9 3 -14 10 -10 15 3 6 -4 8 -16 6 -15 -3 -19
0 -15 10 6 17 6 18 -12 7z m39 -39 c13 -16 12 -17 -3 -4 -10 7 -18 15 -18 17
0 8 8 3 21 -13z"/>
<path d="M5367 5719 c7 -7 15 -10 18 -7 3 3 -2 9 -12 12 -14 6 -15 5 -6 -5z"/>
<path d="M5355 5654 c18 -13 35 -11 35 5 0 5 -12 9 -27 9 -25 0 -25 -1 -8 -14z"/>
<path d="M5520 5506 c0 -2 8 -10 18 -17 15 -13 16 -12 3 4 -13 16 -21 21 -21
13z"/>
<path d="M5530 5377 c10 -16 16 -36 13 -43 -8 -22 5 -16 18 7 8 17 8 20 -1 14
-8 -5 -11 -3 -8 6 3 8 11 13 17 12 6 -2 11 2 11 7 0 10 -14 14 -39 11 -7 -2
-11 2 -7 7 3 5 -1 9 -8 9 -10 0 -9 -8 4 -30z"/>
<path d="M5581 5354 c-1 -5 5 -18 12 -28 12 -16 13 -16 13 3 0 11 -3 18 -7 15
-4 -2 -10 2 -12 8 -3 7 -6 8 -6 2z"/>
<path d="M1116 5298 c3 -5 10 -6 15 -3 13 9 11 12 -6 12 -8 0 -12 -4 -9 -9z"/>
<path d="M5603 5255 c-8 -9 -9 -16 -3 -20 6 -4 7 -11 4 -17 -4 -7 -2 -8 4 -4
6 4 8 14 5 23 -4 11 -3 14 5 9 8 -5 10 -2 6 8 -7 19 -6 19 -21 1z"/>
<path d="M5655 5240 c-3 -5 -1 -10 4 -10 6 0 11 5 11 10 0 6 -2 10 -4 10 -3 0
-8 -4 -11 -10z"/>
<path d="M1065 5100 c-3 -5 -1 -10 4 -10 6 0 11 5 11 10 0 6 -2 10 -4 10 -3 0
-8 -4 -11 -10z"/>
<path d="M5680 5061 c0 -6 4 -13 10 -16 6 -3 7 1 4 9 -7 18 -14 21 -14 7z"/>
<path d="M5730 4940 c0 -5 5 -10 11 -10 5 0 7 5 4 10 -3 6 -8 10 -11 10 -2 0
-4 -4 -4 -10z"/>
<path d="M980 4780 c0 -5 5 -10 11 -10 5 0 7 5 4 10 -3 6 -8 10 -11 10 -2 0
-4 -4 -4 -10z"/>
<path d="M5775 4760 c3 -5 8 -10 11 -10 2 0 4 5 4 10 0 6 -5 10 -11 10 -5 0
-7 -4 -4 -10z"/>
<path d="M5791 4713 c7 -12 15 -20 18 -17 3 2 -3 12 -13 22 -17 16 -18 16 -5
-5z"/>
<path d="M974 4700 c0 -13 4 -16 10 -10 7 7 7 13 0 20 -6 6 -10 3 -10 -10z"/>
<path d="M5791 4667 c2 -1 13 -9 24 -17 19 -14 19 -14 6 3 -7 9 -18 17 -24 17
-6 0 -8 -1 -6 -3z"/>
<path d="M947 4619 c7 -7 15 -10 18 -7 3 3 -2 9 -12 12 -14 6 -15 5 -6 -5z"/>
<path d="M5795 4580 c-3 -5 -1 -10 4 -10 6 0 11 5 11 10 0 6 -2 10 -4 10 -3 0
-8 -4 -11 -10z"/>
<path d="M5775 4549 c-6 -9 24 -34 32 -25 3 3 1 6 -7 6 -9 0 -10 3 -1 13 8 10
7 14 -5 14 -8 0 -17 -4 -19 -8z"/>
<path d="M955 4520 c3 -5 8 -10 11 -10 2 0 4 5 4 10 0 6 -5 10 -11 10 -5 0 -7
-4 -4 -10z"/>
<path d="M935 4500 c-4 -6 -1 -9 7 -8 7 2 12 -3 10 -10 -1 -8 2 -11 8 -7 8 5
7 11 -1 21 -14 17 -16 17 -24 4z"/>
<path d="M906 4422 c-3 -5 1 -9 9 -9 8 0 12 4 9 9 -3 4 -7 8 -9 8 -2 0 -6 -4
-9 -8z"/>
<path d="M5815 4400 c3 -5 8 -10 11 -10 2 0 4 5 4 10 0 6 -5 10 -11 10 -5 0
-7 -4 -4 -10z"/>
<path d="M953 4375 c0 -8 4 -12 9 -9 5 3 6 10 3 15 -9 13 -12 11 -12 -6z"/>
<path d="M913 4344 c8 -9 47 -13 51 -6 2 4 -9 8 -25 8 -17 1 -28 0 -26 -2z"/>
<path d="M954 4211 c20 -22 26 -25 26 -13 0 4 -10 13 -22 21 -23 14 -23 14 -4
-8z"/>
<path d="M5780 4181 c0 -10 19 -25 25 -20 1 2 -3 10 -11 17 -8 7 -14 8 -14 3z"/>
<path d="M934 4138 c-4 -7 -4 -10 1 -6 4 4 16 3 26 -3 11 -5 19 -7 19 -5 0 3
-9 10 -19 16 -15 7 -22 7 -27 -2z"/>
<path d="M5770 4136 c12 -12 42 -17 35 -6 -3 5 1 10 7 13 7 2 -1 4 -19 3 -20
0 -29 -4 -23 -10z"/>
<path d="M5790 4106 c0 -2 7 -7 16 -10 8 -3 12 -2 9 4 -6 10 -25 14 -25 6z"/>
<path d="M958 4083 c7 -3 16 -2 19 1 4 3 -2 6 -13 5 -11 0 -14 -3 -6 -6z"/>
<path d="M967 4039 c7 -7 15 -10 18 -7 3 3 -2 9 -12 12 -14 6 -15 5 -6 -5z"/>
<path d="M935 4020 c-3 -5 -1 -10 4 -10 6 0 11 5 11 10 0 6 -2 10 -4 10 -3 0
-8 -4 -11 -10z"/>
<path d="M976 3954 c-5 -14 -4 -15 9 -4 17 14 19 20 6 20 -5 0 -12 -7 -15 -16z"/>
<path d="M978 3917 c8 -9 11 -20 8 -25 -3 -5 1 -9 9 -9 16 0 4 31 -18 43 -8 6
-8 3 1 -9z"/>
<path d="M5780 3926 c0 -2 8 -10 18 -17 15 -13 16 -12 3 4 -13 16 -21 21 -21
13z"/>
<path d="M959 3853 c-13 -16 -12 -17 4 -4 9 7 17 15 17 17 0 8 -8 3 -21 -13z"/>
<path d="M990 3846 c0 -2 7 -6 15 -10 8 -3 15 -1 15 4 0 6 -7 10 -15 10 -8 0
-15 -2 -15 -4z"/>
<path d="M5750 3810 c0 -5 5 -10 11 -10 5 0 7 5 4 10 -3 6 -8 10 -11 10 -2 0
-4 -4 -4 -10z"/>
<path d="M974 3777 c-4 -6 -4 -9 1 -5 4 4 14 3 22 -4 7 -6 15 -9 18 -7 2 3 -4
10 -15 17 -15 9 -21 9 -26 -1z"/>
<path d="M1020 3750 c-8 -5 -12 -12 -9 -15 4 -3 12 1 19 10 14 17 11 19 -10 5z"/>
<path d="M5735 3719 c-4 -6 -4 -13 -1 -16 3 -4 6 -1 6 6 0 7 5 9 12 5 7 -4 8
-3 4 4 -9 15 -13 15 -21 1z"/>
<path d="M986 3681 c-3 -4 6 -7 19 -7 14 0 22 2 19 5 -8 8 -34 10 -38 2z"/>
<path d="M1059 3615 c-1 -3 -2 -11 -3 -17 -1 -7 -8 -12 -16 -10 -10 1 -7 -4 6
-16 l21 -17 -21 -18 c-21 -17 -20 -18 5 -2 14 8 28 14 30 13 3 -2 -3 4 -13 13
-9 9 -14 19 -11 23 8 8 13 36 7 36 -2 0 -5 -2 -5 -5z"/>
<path d="M1061 3527 c2 -1 12 -9 22 -16 15 -12 17 -12 11 3 -3 9 -13 16 -22
16 -8 0 -13 -1 -11 -3z"/>
<path d="M1066 3497 c3 -10 9 -15 12 -12 3 3 0 11 -7 18 -10 9 -11 8 -5 -6z"/>
<path d="M1122 3415 c5 -5 -6 -16 -22 -26 -17 -11 -30 -24 -30 -31 0 -7 5 -5
11 5 6 9 13 16 17 13 4 -2 15 5 25 14 15 14 16 20 5 26 -7 4 -10 4 -6 -1z"/>
<path d="M5590 3384 c0 -3 7 -12 15 -20 16 -17 18 -14 9 10 -6 15 -24 23 -24
10z"/>
<path d="M5591 3292 c-7 -13 -6 -19 2 -19 7 0 13 9 13 19 0 10 -1 18 -3 18 -1
0 -7 -8 -12 -18z"/>
<path d="M1130 3245 c0 -5 5 -17 10 -25 5 -8 10 -10 10 -5 0 6 -5 17 -10 25
-5 8 -10 11 -10 5z"/>
<path d="M5508 3177 c-8 -15 -7 -18 2 -12 8 5 11 3 8 -6 -3 -8 -10 -13 -15
-12 -5 1 -10 -5 -10 -13 0 -20 10 -18 24 6 7 10 10 27 6 37 -6 15 -4 16 8 6
13 -10 16 -10 16 0 0 21 -27 16 -39 -6z"/>
<path d="M1200 3146 c14 -14 13 -29 -2 -20 -7 4 -8 3 -4 -5 4 -6 11 -9 16 -6
5 3 13 -2 18 -11 5 -9 15 -14 21 -10 6 4 9 12 5 17 -3 5 -9 7 -14 4 -12 -7
-20 21 -9 32 5 5 -1 9 -16 9 -17 0 -22 -3 -15 -10z"/>
<path d="M1214 3070 c0 -13 4 -16 10 -10 7 7 7 13 0 20 -6 6 -10 3 -10 -10z"/>
<path d="M1240 3000 c-12 -7 -10 -9 7 -7 12 0 19 5 17 9 -6 10 -6 10 -24 -2z"/>
<path d="M5398 2986 c-10 -7 -15 -16 -12 -19 3 -3 1 -14 -5 -25 -8 -15 -6 -23
9 -37 16 -14 18 -15 16 -1 -1 8 -5 19 -9 22 -14 14 -7 26 8 14 9 -7 18 -10 22
-6 3 3 1 6 -6 6 -10 0 -8 8 5 28 17 26 17 27 -1 12 -17 -14 -18 -13 -12 3 8
20 7 20 -15 3z"/>
<path d="M5435 2961 c-3 -5 -2 -12 3 -15 5 -3 9 1 9 9 0 17 -3 19 -12 6z"/>
<path d="M1310 2861 c0 -6 4 -13 10 -16 6 -3 7 1 4 9 -7 18 -14 21 -14 7z"/>
<path d="M5386 2858 c3 -5 10 -6 15 -3 13 9 11 12 -6 12 -8 0 -12 -4 -9 -9z"/>
<path d="M5353 2785 c0 -8 4 -12 9 -9 5 3 6 10 3 15 -9 13 -12 11 -12 -6z"/>
<path d="M5164 2576 c-6 -6 -11 -20 -11 -29 0 -16 2 -16 15 -4 7 8 12 21 10
30 -2 11 -6 12 -14 3z"/>
<path d="M1495 2549 c-4 -6 -5 -12 -2 -15 2 -3 7 2 10 11 7 17 1 20 -8 4z"/>
<path d="M1564 2493 c3 -3 1 -12 -6 -20 -9 -11 -7 -12 7 -7 13 5 16 4 11 -5
-5 -7 -2 -10 6 -9 8 2 12 -4 10 -14 -2 -10 2 -18 7 -18 15 0 23 18 11 25 -7 5
-8 11 -1 19 7 9 2 15 -21 24 -17 6 -28 8 -24 5z"/>
<path d="M1570 2406 c0 -2 7 -7 16 -10 8 -3 12 -2 9 4 -6 10 -25 14 -25 6z"/>
<path d="M5030 2279 c0 -5 5 -7 10 -4 6 3 10 8 10 11 0 2 -4 4 -10 4 -5 0 -10
-5 -10 -11z"/>
<path d="M1678 2273 c7 -3 16 -2 19 1 4 3 -2 6 -13 5 -11 0 -14 -3 -6 -6z"/>
<path d="M1710 2258 c0 -4 4 -8 9 -8 6 0 12 4 15 8 3 5 -1 9 -9 9 -8 0 -15 -4
-15 -9z"/>
<path d="M1711 2224 c0 -11 3 -14 6 -6 3 7 2 16 -1 19 -3 4 -6 -2 -5 -13z"/>
<path d="M1730 2200 c0 -5 3 -9 8 -9 4 1 14 1 22 0 13 -1 13 -2 0 -11 -9 -6
-10 -10 -3 -10 21 0 24 19 4 29 -25 14 -31 14 -31 1z"/>
<path d="M1771 2144 c0 -11 3 -14 6 -6 3 7 2 16 -1 19 -3 4 -6 -2 -5 -13z"/>
<path d="M4936 2115 c-9 -26 -7 -32 5 -12 6 10 9 21 6 23 -2 3 -7 -2 -11 -11z"/>
<path d="M4880 2100 c-13 -8 -13 -10 2 -10 9 0 20 5 23 10 8 13 -5 13 -25 0z"/>
<path d="M1795 2080 c3 -5 8 -10 11 -10 2 0 4 5 4 10 0 6 -5 10 -11 10 -5 0
-7 -4 -4 -10z"/>
<path d="M1817 2061 c-3 -13 -1 -18 9 -14 7 2 10 11 7 19 -7 19 -10 18 -16 -5z"/>
<path d="M4894 2059 c-3 -6 -2 -15 3 -20 5 -5 9 -1 9 11 0 23 -2 24 -12 9z"/>
<path d="M1837 2029 c7 -7 15 -10 18 -7 3 3 -2 9 -12 12 -14 6 -15 5 -6 -5z"/>
<path d="M4810 2020 c-8 -22 -6 -38 6 -36 7 1 17 6 21 11 4 4 3 5 -4 1 -6 -3
-13 1 -16 11 -3 10 -6 16 -7 13z"/>
<path d="M1860 2000 c0 -5 7 -10 16 -10 14 0 15 -2 3 -17 -10 -13 -8 -13 10 2
17 15 22 16 21 5 -5 -35 -1 -43 15 -30 14 12 14 15 -1 31 -10 11 -19 17 -22
14 -3 -2 -13 0 -23 6 -13 6 -19 6 -19 -1z"/>
<path d="M4815 1960 c3 -5 8 -10 11 -10 2 0 4 5 4 10 0 6 -5 10 -11 10 -5 0
-7 -4 -4 -10z"/>
<path d="M1950 1908 c0 -12 1 -19 3 -17 1 2 9 12 16 22 12 14 11 17 -3 17 -10
0 -16 -8 -16 -22z"/>
<path d="M4787 1919 c7 -7 15 -10 18 -7 3 3 -2 9 -12 12 -14 6 -15 5 -6 -5z"/>
<path d="M1934 1872 c0 -10 6 -19 13 -19 8 0 9 6 2 19 -5 10 -11 18 -12 18 -2
0 -3 -8 -3 -18z"/>
<path d="M4734 1839 c-3 -6 -2 -15 4 -21 6 -6 12 -6 17 3 6 8 4 10 -5 4 -10
-6 -12 -4 -7 8 7 19 2 23 -9 6z"/>
<path d="M1950 1821 c0 -6 4 -13 10 -16 6 -3 7 1 4 9 -7 18 -14 21 -14 7z"/>
<path d="M2022 1807 c-5 -6 -7 -20 -3 -29 5 -15 8 -13 18 7 12 27 2 43 -15 22z"/>
<path d="M4672 1785 c3 -3 16 -8 28 -10 12 -2 20 -1 16 2 -4 4 -16 8 -28 10
-12 2 -19 1 -16 -2z"/>
<path d="M1985 1760 c-3 -6 1 -7 9 -4 18 7 21 14 7 14 -6 0 -13 -4 -16 -10z"/>
<path d="M4670 1720 c0 -5 5 -10 11 -10 5 0 7 5 4 10 -3 6 -8 10 -11 10 -2 0
-4 -4 -4 -10z"/>
<path d="M2110 1696 c0 -2 8 -10 18 -17 15 -13 16 -12 3 4 -13 16 -21 21 -21
13z"/>
<path d="M4584 1618 l-19 -23 23 19 c12 11 22 21 22 23 0 8 -8 2 -26 -19z"/>
<path d="M2115 1620 c3 -5 8 -10 11 -10 2 0 4 5 4 10 0 6 -5 10 -11 10 -5 0
-7 -4 -4 -10z"/>
<path d="M2170 1606 c0 -9 -4 -16 -8 -16 -5 0 -9 -7 -9 -15 0 -20 2 -19 21 9
10 15 12 27 6 31 -6 3 -10 -1 -10 -9z"/>
<path d="M4555 1579 c-4 -6 -4 -13 -1 -16 3 -4 6 -1 6 6 0 7 5 9 12 5 7 -4 8
-3 4 4 -9 15 -13 15 -21 1z"/>
<path d="M4496 1467 c3 -10 9 -15 12 -12 3 3 0 11 -7 18 -10 9 -11 8 -5 -6z"/>
<path d="M2230 1460 c0 -5 5 -10 11 -10 5 0 7 5 4 10 -3 6 -8 10 -11 10 -2 0
-4 -4 -4 -10z"/>
<path d="M4473 1435 c0 -8 4 -12 9 -9 5 3 6 10 3 15 -9 13 -12 11 -12 -6z"/>
<path d="M2315 1360 c3 -5 8 -10 11 -10 2 0 4 5 4 10 0 6 -5 10 -11 10 -5 0
-7 -4 -4 -10z"/>
<path d="M4328 1332 c-18 -21 -18 -40 1 -37 9 1 22 -5 30 -14 7 -9 6 -4 -3 12
-15 24 -15 28 -1 33 8 3 15 9 15 13 0 13 -30 8 -42 -7z m13 -5 c-6 -8 -7 -18
-3 -22 4 -5 1 -5 -6 -1 -10 6 -10 11 -1 22 6 8 14 14 16 14 3 0 0 -6 -6 -13z"/>
<path d="M2373 1323 c-8 -3 -3 -15 14 -33 14 -16 30 -27 34 -24 5 3 9 0 9 -6
0 -6 5 -8 11 -4 8 4 7 9 -2 15 -7 4 -16 6 -20 3 -10 -6 -32 24 -25 35 8 12 -5
20 -21 14z"/>
<path d="M4370 1311 c0 -6 4 -13 10 -16 6 -3 7 1 4 9 -7 18 -14 21 -14 7z"/>
<path d="M4315 1249 c-4 -6 -5 -12 -2 -15 2 -3 7 2 10 11 7 17 1 20 -8 4z"/>
<path d="M2399 1233 c-13 -16 -12 -17 4 -4 16 13 21 21 13 21 -2 0 -10 -8 -17
-17z"/>
<path d="M4260 1180 c-9 -6 -10 -10 -3 -10 6 0 15 5 18 10 8 12 4 12 -15 0z"/>
<path d="M2486 1122 c-3 -5 1 -9 9 -9 8 0 12 4 9 9 -3 4 -7 8 -9 8 -2 0 -6 -4
-9 -8z"/>
<path d="M4156 1096 c-26 -20 -27 -23 -11 -30 10 -3 20 -4 23 -1 3 3 0 5 -7 5
-7 0 -9 5 -6 10 5 8 11 8 20 0 16 -13 25 -1 16 22 -6 16 -9 16 -35 -6z"/>
<path d="M2649 978 c12 -15 11 -18 -3 -18 -9 0 -16 -5 -16 -11 0 -5 5 -7 10
-4 6 4 17 2 25 -5 26 -22 24 7 -3 31 -14 13 -20 16 -13 7z"/>
<path d="M2639 913 c-12 -16 -12 -17 2 -6 9 7 20 9 24 5 5 -4 5 -1 1 6 -9 16
-11 15 -27 -5z"/>
<path d="M4053 895 c0 -8 4 -12 9 -9 4 3 8 9 8 15 0 5 -4 9 -8 9 -5 0 -9 -7
-9 -15z"/>
<path d="M2706 842 c-3 -5 1 -9 9 -9 8 0 12 4 9 9 -3 4 -7 8 -9 8 -2 0 -6 -4
-9 -8z"/>
<path d="M2715 811 c-3 -5 -2 -12 3 -15 5 -3 9 1 9 9 0 17 -3 19 -12 6z"/>
<path d="M2760 760 c8 -5 20 -10 25 -10 6 0 3 5 -5 10 -8 5 -19 10 -25 10 -5
0 -3 -5 5 -10z"/>
<path d="M2795 740 c-3 -5 -1 -10 4 -10 6 0 11 5 11 10 0 6 -2 10 -4 10 -3 0
-8 -4 -11 -10z"/>
<path d="M3920 700 c8 -5 20 -10 25 -10 6 0 3 5 -5 10 -8 5 -19 10 -25 10 -5
0 -3 -5 5 -10z"/>
<path d="M3854 661 c0 -11 4 -17 8 -15 4 3 8 12 8 20 0 8 -4 14 -8 14 -4 0 -8
-9 -8 -19z"/>
<path d="M2860 646 c0 -2 8 -10 18 -17 15 -13 16 -12 3 4 -13 16 -21 21 -21
13z"/>
<path d="M3812 645 c4 -5 4 -13 -2 -19 -6 -9 0 -12 21 -11 16 0 29 1 29 1 0 1
-12 10 -27 19 -16 10 -25 14 -21 10z"/>
<path d="M2934 608 c-4 -7 -3 -8 4 -4 15 9 15 5 2 -29 -7 -17 -7 -24 0 -20 6
3 10 12 10 20 0 7 8 15 18 17 15 3 14 5 -5 16 -16 9 -24 9 -29 0z"/>
<path d="M2913 585 c0 -8 4 -12 9 -9 5 3 6 10 3 15 -9 13 -12 11 -12 -6z"/>
<path d="M3734 548 c-5 -7 -10 -22 -11 -33 -3 -19 -3 -19 12 2 9 13 23 20 35
18 11 -2 20 1 20 7 0 5 -6 8 -14 5 -7 -3 -18 -1 -24 5 -6 6 -12 5 -18 -4z"/>
<path d="M3746 503 c-6 -14 -5 -15 5 -6 7 7 10 15 7 18 -3 3 -9 -2 -12 -12z"/>
<path d="M2986 502 c-3 -5 1 -9 9 -9 8 0 12 4 9 9 -3 4 -7 8 -9 8 -2 0 -6 -4
-9 -8z"/>
<path d="M3024 499 c-2 -4 0 -11 6 -14 8 -5 7 -12 -2 -23 -11 -14 -9 -14 8 1
11 9 21 23 21 30 0 15 -25 19 -33 6z"/>
<path d="M3665 460 c-3 -5 -1 -10 4 -10 6 0 11 5 11 10 0 6 -2 10 -4 10 -3 0
-8 -4 -11 -10z"/>
<path d="M3036 433 c-6 -14 -5 -15 5 -6 7 7 10 15 7 18 -3 3 -9 -2 -12 -12z"/>
<path d="M3100 445 c0 -15 18 -40 24 -34 3 3 -1 14 -9 25 -8 10 -14 15 -15 9z"/>
<path d="M3078 403 c7 -3 16 -2 19 1 4 3 -2 6 -13 5 -11 0 -14 -3 -6 -6z"/>
<path d="M3155 309 c-11 -16 -1 -19 13 -3 7 8 8 14 3 14 -5 0 -13 -5 -16 -11z"/>
<path d="M3215 290 c-4 -6 -14 -9 -22 -6 -8 4 -11 1 -8 -5 4 -6 13 -8 20 -5 7
2 16 -2 19 -10 9 -23 7 -26 -6 -18 -7 4 -10 3 -5 -1 4 -5 17 -10 28 -12 19 -3
19 -2 5 13 -26 26 -18 38 9 13 22 -22 23 -25 8 -36 -9 -7 -12 -13 -6 -13 16 0
33 24 25 35 -21 29 -60 56 -67 45z"/>
<path d="M3510 221 c0 -6 4 -13 10 -16 6 -3 7 1 4 9 -7 18 -14 21 -14 7z"/>
<path d="M3386 162 c-3 -2 -2 -11 1 -19 5 -12 7 -12 14 -1 6 10 11 10 21 0 6
-6 16 -12 20 -12 4 0 0 8 -9 18 -17 17 -38 24 -47 14z"/>
<path d="M3468 163 c7 -3 16 -2 19 1 4 3 -2 6 -13 5 -11 0 -14 -3 -6 -6z"/>
<path d="M3346 121 c-3 -4 6 -7 19 -7 14 0 22 2 19 5 -8 8 -34 10 -38 2z"/>
</g>
</svg>
